ISO-10303-21;
HEADER;
/* Generated by software containing ST-Developer
 * from STEP Tools, Inc. (www.steptools.com) 
 */

FILE_DESCRIPTION(
/* description */ (''),
/* implementation_level */ '2;1');

FILE_NAME(
/* name */ 'Deckel.stp',
/* time_stamp */ '2026-01-11T18:11:06+01:00',
/* author */ ('miros'),
/* organization */ (''),
/* preprocessor_version */ 'ST-DEVELOPER v20',
/* originating_system */ 'Autodesk Inventor 2025',
/* authorisation */ '');

FILE_SCHEMA (('AUTOMOTIVE_DESIGN { 1 0 10303 214 3 1 1 }'));
ENDSEC;

DATA;
#10=MECHANICAL_DESIGN_GEOMETRIC_PRESENTATION_REPRESENTATION('',(#13),#2179);
#11=SHAPE_REPRESENTATION_RELATIONSHIP('SRR','None',#2186,#12);
#12=ADVANCED_BREP_SHAPE_REPRESENTATION('',(#14),#2178);
#13=STYLED_ITEM('',(#2195),#14);
#14=MANIFOLD_SOLID_BREP('Volumenk\X\F6rper22',#1318);
#15=FACE_BOUND('',#197,.T.);
#16=FACE_BOUND('',#198,.T.);
#17=FACE_BOUND('',#199,.T.);
#18=FACE_BOUND('',#200,.T.);
#19=FACE_BOUND('',#201,.T.);
#20=FACE_BOUND('',#202,.T.);
#21=FACE_BOUND('',#203,.T.);
#22=FACE_BOUND('',#204,.T.);
#23=FACE_BOUND('',#205,.T.);
#24=FACE_BOUND('',#206,.T.);
#25=FACE_BOUND('',#207,.T.);
#26=FACE_BOUND('',#244,.T.);
#27=SPHERICAL_SURFACE('',#1364,0.4);
#28=SPHERICAL_SURFACE('',#1370,0.399999999999991);
#29=SPHERICAL_SURFACE('',#1376,0.4);
#30=SPHERICAL_SURFACE('',#1383,0.4);
#31=PLANE('',#1345);
#32=PLANE('',#1346);
#33=PLANE('',#1348);
#34=PLANE('',#1353);
#35=PLANE('',#1355);
#36=PLANE('',#1359);
#37=PLANE('',#1360);
#38=PLANE('',#1392);
#39=PLANE('',#1393);
#40=PLANE('',#1394);
#41=PLANE('',#1395);
#42=PLANE('',#1396);
#43=PLANE('',#1397);
#44=PLANE('',#1398);
#45=PLANE('',#1399);
#46=PLANE('',#1400);
#47=PLANE('',#1401);
#48=PLANE('',#1402);
#49=PLANE('',#1403);
#50=PLANE('',#1404);
#51=PLANE('',#1405);
#52=PLANE('',#1406);
#53=PLANE('',#1407);
#54=PLANE('',#1408);
#55=PLANE('',#1409);
#56=PLANE('',#1410);
#57=PLANE('',#1411);
#58=PLANE('',#1412);
#59=PLANE('',#1413);
#60=PLANE('',#1414);
#61=PLANE('',#1415);
#62=PLANE('',#1416);
#63=PLANE('',#1417);
#64=PLANE('',#1418);
#65=PLANE('',#1419);
#66=PLANE('',#1420);
#67=PLANE('',#1421);
#68=PLANE('',#1422);
#69=PLANE('',#1423);
#70=PLANE('',#1424);
#71=PLANE('',#1425);
#72=PLANE('',#1426);
#73=PLANE('',#1427);
#74=PLANE('',#1428);
#75=PLANE('',#1429);
#76=PLANE('',#1430);
#77=PLANE('',#1431);
#78=PLANE('',#1432);
#79=PLANE('',#1433);
#80=PLANE('',#1434);
#81=PLANE('',#1435);
#82=PLANE('',#1436);
#83=PLANE('',#1437);
#84=PLANE('',#1438);
#85=PLANE('',#1439);
#86=PLANE('',#1440);
#87=PLANE('',#1441);
#88=PLANE('',#1442);
#89=PLANE('',#1443);
#90=PLANE('',#1444);
#91=PLANE('',#1445);
#92=FACE_OUTER_BOUND('',#169,.T.);
#93=FACE_OUTER_BOUND('',#170,.T.);
#94=FACE_OUTER_BOUND('',#171,.T.);
#95=FACE_OUTER_BOUND('',#172,.T.);
#96=FACE_OUTER_BOUND('',#173,.T.);
#97=FACE_OUTER_BOUND('',#174,.T.);
#98=FACE_OUTER_BOUND('',#175,.T.);
#99=FACE_OUTER_BOUND('',#176,.T.);
#100=FACE_OUTER_BOUND('',#177,.T.);
#101=FACE_OUTER_BOUND('',#178,.T.);
#102=FACE_OUTER_BOUND('',#179,.T.);
#103=FACE_OUTER_BOUND('',#180,.T.);
#104=FACE_OUTER_BOUND('',#181,.T.);
#105=FACE_OUTER_BOUND('',#182,.T.);
#106=FACE_OUTER_BOUND('',#183,.T.);
#107=FACE_OUTER_BOUND('',#184,.T.);
#108=FACE_OUTER_BOUND('',#185,.T.);
#109=FACE_OUTER_BOUND('',#186,.T.);
#110=FACE_OUTER_BOUND('',#187,.T.);
#111=FACE_OUTER_BOUND('',#188,.T.);
#112=FACE_OUTER_BOUND('',#189,.T.);
#113=FACE_OUTER_BOUND('',#190,.T.);
#114=FACE_OUTER_BOUND('',#191,.T.);
#115=FACE_OUTER_BOUND('',#192,.T.);
#116=FACE_OUTER_BOUND('',#193,.T.);
#117=FACE_OUTER_BOUND('',#194,.T.);
#118=FACE_OUTER_BOUND('',#195,.T.);
#119=FACE_OUTER_BOUND('',#196,.T.);
#120=FACE_OUTER_BOUND('',#208,.T.);
#121=FACE_OUTER_BOUND('',#209,.T.);
#122=FACE_OUTER_BOUND('',#210,.T.);
#123=FACE_OUTER_BOUND('',#211,.T.);
#124=FACE_OUTER_BOUND('',#212,.T.);
#125=FACE_OUTER_BOUND('',#213,.T.);
#126=FACE_OUTER_BOUND('',#214,.T.);
#127=FACE_OUTER_BOUND('',#215,.T.);
#128=FACE_OUTER_BOUND('',#216,.T.);
#129=FACE_OUTER_BOUND('',#217,.T.);
#130=FACE_OUTER_BOUND('',#218,.T.);
#131=FACE_OUTER_BOUND('',#219,.T.);
#132=FACE_OUTER_BOUND('',#220,.T.);
#133=FACE_OUTER_BOUND('',#221,.T.);
#134=FACE_OUTER_BOUND('',#222,.T.);
#135=FACE_OUTER_BOUND('',#223,.T.);
#136=FACE_OUTER_BOUND('',#224,.T.);
#137=FACE_OUTER_BOUND('',#225,.T.);
#138=FACE_OUTER_BOUND('',#226,.T.);
#139=FACE_OUTER_BOUND('',#227,.T.);
#140=FACE_OUTER_BOUND('',#228,.T.);
#141=FACE_OUTER_BOUND('',#229,.T.);
#142=FACE_OUTER_BOUND('',#230,.T.);
#143=FACE_OUTER_BOUND('',#231,.T.);
#144=FACE_OUTER_BOUND('',#232,.T.);
#145=FACE_OUTER_BOUND('',#233,.T.);
#146=FACE_OUTER_BOUND('',#234,.T.);
#147=FACE_OUTER_BOUND('',#235,.T.);
#148=FACE_OUTER_BOUND('',#236,.T.);
#149=FACE_OUTER_BOUND('',#237,.T.);
#150=FACE_OUTER_BOUND('',#238,.T.);
#151=FACE_OUTER_BOUND('',#239,.T.);
#152=FACE_OUTER_BOUND('',#240,.T.);
#153=FACE_OUTER_BOUND('',#241,.T.);
#154=FACE_OUTER_BOUND('',#242,.T.);
#155=FACE_OUTER_BOUND('',#243,.T.);
#156=FACE_OUTER_BOUND('',#245,.T.);
#157=FACE_OUTER_BOUND('',#246,.T.);
#158=FACE_OUTER_BOUND('',#247,.T.);
#159=FACE_OUTER_BOUND('',#248,.T.);
#160=FACE_OUTER_BOUND('',#249,.T.);
#161=FACE_OUTER_BOUND('',#250,.T.);
#162=FACE_OUTER_BOUND('',#251,.T.);
#163=FACE_OUTER_BOUND('',#252,.T.);
#164=FACE_OUTER_BOUND('',#253,.T.);
#165=FACE_OUTER_BOUND('',#254,.T.);
#166=FACE_OUTER_BOUND('',#255,.T.);
#167=FACE_OUTER_BOUND('',#256,.T.);
#168=FACE_OUTER_BOUND('',#257,.T.);
#169=EDGE_LOOP('',(#875,#876,#877,#878,#879));
#170=EDGE_LOOP('',(#880,#881,#882,#883));
#171=EDGE_LOOP('',(#884,#885,#886,#887,#888,#889));
#172=EDGE_LOOP('',(#890,#891,#892,#893,#894,#895));
#173=EDGE_LOOP('',(#896,#897,#898,#899,#900));
#174=EDGE_LOOP('',(#901,#902,#903,#904,#905,#906));
#175=EDGE_LOOP('',(#907,#908,#909,#910));
#176=EDGE_LOOP('',(#911,#912,#913,#914,#915));
#177=EDGE_LOOP('',(#916,#917,#918,#919));
#178=EDGE_LOOP('',(#920,#921,#922,#923,#924,#925));
#179=EDGE_LOOP('',(#926,#927,#928,#929,#930));
#180=EDGE_LOOP('',(#931,#932,#933));
#181=EDGE_LOOP('',(#934,#935,#936,#937));
#182=EDGE_LOOP('',(#938,#939,#940));
#183=EDGE_LOOP('',(#941,#942,#943,#944));
#184=EDGE_LOOP('',(#945,#946,#947));
#185=EDGE_LOOP('',(#948,#949,#950,#951));
#186=EDGE_LOOP('',(#952,#953,#954,#955));
#187=EDGE_LOOP('',(#956,#957,#958));
#188=EDGE_LOOP('',(#959,#960,#961,#962));
#189=EDGE_LOOP('',(#963,#964,#965,#966));
#190=EDGE_LOOP('',(#967,#968,#969,#970));
#191=EDGE_LOOP('',(#971,#972,#973,#974));
#192=EDGE_LOOP('',(#975,#976,#977,#978));
#193=EDGE_LOOP('',(#979,#980,#981,#982));
#194=EDGE_LOOP('',(#983,#984,#985,#986));
#195=EDGE_LOOP('',(#987,#988,#989,#990));
#196=EDGE_LOOP('',(#991,#992,#993,#994));
#197=EDGE_LOOP('',(#995,#996,#997,#998));
#198=EDGE_LOOP('',(#999,#1000,#1001));
#199=EDGE_LOOP('',(#1002,#1003,#1004));
#200=EDGE_LOOP('',(#1005,#1006,#1007));
#201=EDGE_LOOP('',(#1008,#1009,#1010,#1011));
#202=EDGE_LOOP('',(#1012,#1013,#1014));
#203=EDGE_LOOP('',(#1015,#1016,#1017));
#204=EDGE_LOOP('',(#1018,#1019,#1020));
#205=EDGE_LOOP('',(#1021,#1022,#1023));
#206=EDGE_LOOP('',(#1024,#1025,#1026));
#207=EDGE_LOOP('',(#1027,#1028,#1029));
#208=EDGE_LOOP('',(#1030,#1031,#1032,#1033));
#209=EDGE_LOOP('',(#1034,#1035,#1036,#1037));
#210=EDGE_LOOP('',(#1038,#1039,#1040,#1041));
#211=EDGE_LOOP('',(#1042,#1043,#1044,#1045));
#212=EDGE_LOOP('',(#1046,#1047,#1048,#1049));
#213=EDGE_LOOP('',(#1050,#1051,#1052,#1053));
#214=EDGE_LOOP('',(#1054,#1055,#1056,#1057));
#215=EDGE_LOOP('',(#1058,#1059,#1060,#1061));
#216=EDGE_LOOP('',(#1062,#1063,#1064,#1065));
#217=EDGE_LOOP('',(#1066,#1067,#1068,#1069));
#218=EDGE_LOOP('',(#1070,#1071,#1072,#1073));
#219=EDGE_LOOP('',(#1074,#1075,#1076,#1077));
#220=EDGE_LOOP('',(#1078,#1079,#1080,#1081));
#221=EDGE_LOOP('',(#1082,#1083,#1084,#1085));
#222=EDGE_LOOP('',(#1086,#1087,#1088,#1089));
#223=EDGE_LOOP('',(#1090,#1091,#1092,#1093));
#224=EDGE_LOOP('',(#1094,#1095,#1096,#1097));
#225=EDGE_LOOP('',(#1098,#1099,#1100,#1101));
#226=EDGE_LOOP('',(#1102,#1103,#1104,#1105));
#227=EDGE_LOOP('',(#1106,#1107,#1108,#1109));
#228=EDGE_LOOP('',(#1110,#1111,#1112,#1113));
#229=EDGE_LOOP('',(#1114,#1115,#1116,#1117));
#230=EDGE_LOOP('',(#1118,#1119,#1120,#1121));
#231=EDGE_LOOP('',(#1122,#1123,#1124,#1125));
#232=EDGE_LOOP('',(#1126,#1127,#1128,#1129));
#233=EDGE_LOOP('',(#1130,#1131,#1132,#1133));
#234=EDGE_LOOP('',(#1134,#1135,#1136,#1137));
#235=EDGE_LOOP('',(#1138,#1139,#1140,#1141));
#236=EDGE_LOOP('',(#1142,#1143,#1144,#1145));
#237=EDGE_LOOP('',(#1146,#1147,#1148,#1149));
#238=EDGE_LOOP('',(#1150,#1151,#1152,#1153));
#239=EDGE_LOOP('',(#1154,#1155,#1156,#1157));
#240=EDGE_LOOP('',(#1158,#1159,#1160,#1161));
#241=EDGE_LOOP('',(#1162,#1163,#1164,#1165));
#242=EDGE_LOOP('',(#1166,#1167,#1168,#1169));
#243=EDGE_LOOP('',(#1170,#1171,#1172,#1173,#1174,#1175,#1176,#1177));
#244=EDGE_LOOP('',(#1178,#1179,#1180,#1181,#1182,#1183,#1184,#1185));
#245=EDGE_LOOP('',(#1186,#1187,#1188));
#246=EDGE_LOOP('',(#1189,#1190,#1191));
#247=EDGE_LOOP('',(#1192,#1193,#1194));
#248=EDGE_LOOP('',(#1195,#1196,#1197));
#249=EDGE_LOOP('',(#1198,#1199,#1200));
#250=EDGE_LOOP('',(#1201,#1202,#1203));
#251=EDGE_LOOP('',(#1204,#1205,#1206,#1207));
#252=EDGE_LOOP('',(#1208,#1209,#1210));
#253=EDGE_LOOP('',(#1211,#1212,#1213));
#254=EDGE_LOOP('',(#1214,#1215,#1216));
#255=EDGE_LOOP('',(#1217,#1218,#1219,#1220));
#256=EDGE_LOOP('',(#1221,#1222,#1223,#1224));
#257=EDGE_LOOP('',(#1225,#1226,#1227,#1228));
#258=CIRCLE('',#1343,0.4);
#259=CIRCLE('',#1351,0.4);
#260=CIRCLE('',#1358,0.4);
#261=CIRCLE('',#1363,0.4);
#262=CIRCLE('',#1365,0.400000000000002);
#263=CIRCLE('',#1366,0.4);
#264=CIRCLE('',#1367,0.4);
#265=CIRCLE('',#1369,0.4);
#266=CIRCLE('',#1371,0.4);
#267=CIRCLE('',#1372,0.399999999999991);
#268=CIRCLE('',#1373,0.4);
#269=CIRCLE('',#1375,0.4);
#270=CIRCLE('',#1377,0.4);
#271=CIRCLE('',#1378,0.4);
#272=CIRCLE('',#1379,0.4);
#273=CIRCLE('',#1381,0.4);
#274=CIRCLE('',#1384,0.399999999999991);
#275=CIRCLE('',#1385,0.4);
#276=CIRCLE('',#1386,0.4);
#277=CIRCLE('',#1388,0.4);
#278=LINE('',#1813,#427);
#279=LINE('',#1817,#428);
#280=LINE('',#1821,#429);
#281=LINE('',#1823,#430);
#282=LINE('',#1824,#431);
#283=LINE('',#1827,#432);
#284=LINE('',#1829,#433);
#285=LINE('',#1831,#434);
#286=LINE('',#1835,#435);
#287=LINE('',#1839,#436);
#288=LINE('',#1840,#437);
#289=LINE('',#1843,#438);
#290=LINE('',#1847,#439);
#291=LINE('',#1851,#440);
#292=LINE('',#1855,#441);
#293=LINE('',#1856,#442);
#294=LINE('',#1859,#443);
#295=LINE('',#1860,#444);
#296=LINE('',#1865,#445);
#297=LINE('',#1869,#446);
#298=LINE('',#1871,#447);
#299=LINE('',#1872,#448);
#300=LINE('',#1874,#449);
#301=LINE('',#1889,#450);
#302=LINE('',#1890,#451);
#303=LINE('',#1902,#452);
#304=LINE('',#1903,#453);
#305=LINE('',#1915,#454);
#306=LINE('',#1916,#455);
#307=LINE('',#1918,#456);
#308=LINE('',#1919,#457);
#309=LINE('',#1931,#458);
#310=LINE('',#1932,#459);
#311=LINE('',#1934,#460);
#312=LINE('',#1935,#461);
#313=LINE('',#1937,#462);
#314=LINE('',#1938,#463);
#315=LINE('',#1940,#464);
#316=LINE('',#1941,#465);
#317=LINE('',#1943,#466);
#318=LINE('',#1945,#467);
#319=LINE('',#1948,#468);
#320=LINE('',#1952,#469);
#321=LINE('',#1954,#470);
#322=LINE('',#1956,#471);
#323=LINE('',#1957,#472);
#324=LINE('',#1960,#473);
#325=LINE('',#1962,#474);
#326=LINE('',#1963,#475);
#327=LINE('',#1966,#476);
#328=LINE('',#1968,#477);
#329=LINE('',#1969,#478);
#330=LINE('',#1972,#479);
#331=LINE('',#1974,#480);
#332=LINE('',#1975,#481);
#333=LINE('',#1978,#482);
#334=LINE('',#1980,#483);
#335=LINE('',#1982,#484);
#336=LINE('',#1983,#485);
#337=LINE('',#1986,#486);
#338=LINE('',#1988,#487);
#339=LINE('',#1989,#488);
#340=LINE('',#1992,#489);
#341=LINE('',#1994,#490);
#342=LINE('',#1995,#491);
#343=LINE('',#1998,#492);
#344=LINE('',#2000,#493);
#345=LINE('',#2001,#494);
#346=LINE('',#2004,#495);
#347=LINE('',#2006,#496);
#348=LINE('',#2007,#497);
#349=LINE('',#2010,#498);
#350=LINE('',#2012,#499);
#351=LINE('',#2013,#500);
#352=LINE('',#2016,#501);
#353=LINE('',#2018,#502);
#354=LINE('',#2019,#503);
#355=LINE('',#2023,#504);
#356=LINE('',#2024,#505);
#357=LINE('',#2025,#506);
#358=LINE('',#2028,#507);
#359=LINE('',#2029,#508);
#360=LINE('',#2032,#509);
#361=LINE('',#2033,#510);
#362=LINE('',#2035,#511);
#363=LINE('',#2039,#512);
#364=LINE('',#2040,#513);
#365=LINE('',#2041,#514);
#366=LINE('',#2044,#515);
#367=LINE('',#2045,#516);
#368=LINE('',#2047,#517);
#369=LINE('',#2051,#518);
#370=LINE('',#2052,#519);
#371=LINE('',#2053,#520);
#372=LINE('',#2056,#521);
#373=LINE('',#2057,#522);
#374=LINE('',#2059,#523);
#375=LINE('',#2063,#524);
#376=LINE('',#2064,#525);
#377=LINE('',#2065,#526);
#378=LINE('',#2068,#527);
#379=LINE('',#2069,#528);
#380=LINE('',#2071,#529);
#381=LINE('',#2075,#530);
#382=LINE('',#2076,#531);
#383=LINE('',#2077,#532);
#384=LINE('',#2080,#533);
#385=LINE('',#2081,#534);
#386=LINE('',#2084,#535);
#387=LINE('',#2085,#536);
#388=LINE('',#2087,#537);
#389=LINE('',#2091,#538);
#390=LINE('',#2092,#539);
#391=LINE('',#2093,#540);
#392=LINE('',#2096,#541);
#393=LINE('',#2097,#542);
#394=LINE('',#2099,#543);
#395=LINE('',#2103,#544);
#396=LINE('',#2104,#545);
#397=LINE('',#2105,#546);
#398=LINE('',#2108,#547);
#399=LINE('',#2109,#548);
#400=LINE('',#2111,#549);
#401=LINE('',#2115,#550);
#402=LINE('',#2116,#551);
#403=LINE('',#2117,#552);
#404=LINE('',#2120,#553);
#405=LINE('',#2121,#554);
#406=LINE('',#2123,#555);
#407=LINE('',#2127,#556);
#408=LINE('',#2128,#557);
#409=LINE('',#2129,#558);
#410=LINE('',#2132,#559);
#411=LINE('',#2133,#560);
#412=LINE('',#2135,#561);
#413=LINE('',#2139,#562);
#414=LINE('',#2140,#563);
#415=LINE('',#2141,#564);
#416=LINE('',#2144,#565);
#417=LINE('',#2145,#566);
#418=LINE('',#2147,#567);
#419=LINE('',#2151,#568);
#420=LINE('',#2152,#569);
#421=LINE('',#2153,#570);
#422=LINE('',#2156,#571);
#423=LINE('',#2157,#572);
#424=LINE('',#2159,#573);
#425=LINE('',#2161,#574);
#426=LINE('',#2162,#575);
#427=VECTOR('',#1452,10.);
#428=VECTOR('',#1455,10.);
#429=VECTOR('',#1460,10.);
#430=VECTOR('',#1461,10.);
#431=VECTOR('',#1462,10.);
#432=VECTOR('',#1465,10.);
#433=VECTOR('',#1466,10.);
#434=VECTOR('',#1467,10.);
#435=VECTOR('',#1472,10.);
#436=VECTOR('',#1475,10.);
#437=VECTOR('',#1476,10.);
#438=VECTOR('',#1479,10.);
#439=VECTOR('',#1482,10.);
#440=VECTOR('',#1487,10.);
#441=VECTOR('',#1490,10.);
#442=VECTOR('',#1491,10.);
#443=VECTOR('',#1494,10.);
#444=VECTOR('',#1495,10.);
#445=VECTOR('',#1500,10.);
#446=VECTOR('',#1505,10.);
#447=VECTOR('',#1506,10.);
#448=VECTOR('',#1507,10.);
#449=VECTOR('',#1510,10.);
#450=VECTOR('',#1529,10.);
#451=VECTOR('',#1530,10.);
#452=VECTOR('',#1543,10.);
#453=VECTOR('',#1544,10.);
#454=VECTOR('',#1557,10.);
#455=VECTOR('',#1558,10.);
#456=VECTOR('',#1561,10.);
#457=VECTOR('',#1562,10.);
#458=VECTOR('',#1575,10.);
#459=VECTOR('',#1576,10.);
#460=VECTOR('',#1579,10.);
#461=VECTOR('',#1580,10.);
#462=VECTOR('',#1583,10.);
#463=VECTOR('',#1584,10.);
#464=VECTOR('',#1587,10.);
#465=VECTOR('',#1588,10.);
#466=VECTOR('',#1591,10.);
#467=VECTOR('',#1594,10.);
#468=VECTOR('',#1599,10.);
#469=VECTOR('',#1602,10.);
#470=VECTOR('',#1603,10.);
#471=VECTOR('',#1604,10.);
#472=VECTOR('',#1605,10.);
#473=VECTOR('',#1606,10.);
#474=VECTOR('',#1607,10.);
#475=VECTOR('',#1608,10.);
#476=VECTOR('',#1609,10.);
#477=VECTOR('',#1610,10.);
#478=VECTOR('',#1611,10.);
#479=VECTOR('',#1612,10.);
#480=VECTOR('',#1613,10.);
#481=VECTOR('',#1614,10.);
#482=VECTOR('',#1615,10.);
#483=VECTOR('',#1616,10.);
#484=VECTOR('',#1617,10.);
#485=VECTOR('',#1618,10.);
#486=VECTOR('',#1619,10.);
#487=VECTOR('',#1620,10.);
#488=VECTOR('',#1621,10.);
#489=VECTOR('',#1622,10.);
#490=VECTOR('',#1623,10.);
#491=VECTOR('',#1624,10.);
#492=VECTOR('',#1625,10.);
#493=VECTOR('',#1626,10.);
#494=VECTOR('',#1627,10.);
#495=VECTOR('',#1628,10.);
#496=VECTOR('',#1629,10.);
#497=VECTOR('',#1630,10.);
#498=VECTOR('',#1631,10.);
#499=VECTOR('',#1632,10.);
#500=VECTOR('',#1633,10.);
#501=VECTOR('',#1634,10.);
#502=VECTOR('',#1635,10.);
#503=VECTOR('',#1636,10.);
#504=VECTOR('',#1639,10.);
#505=VECTOR('',#1640,10.);
#506=VECTOR('',#1641,10.);
#507=VECTOR('',#1644,10.);
#508=VECTOR('',#1645,10.);
#509=VECTOR('',#1648,10.);
#510=VECTOR('',#1649,10.);
#511=VECTOR('',#1652,10.);
#512=VECTOR('',#1655,10.);
#513=VECTOR('',#1656,10.);
#514=VECTOR('',#1657,10.);
#515=VECTOR('',#1660,10.);
#516=VECTOR('',#1661,10.);
#517=VECTOR('',#1664,10.);
#518=VECTOR('',#1667,10.);
#519=VECTOR('',#1668,10.);
#520=VECTOR('',#1669,10.);
#521=VECTOR('',#1672,10.);
#522=VECTOR('',#1673,10.);
#523=VECTOR('',#1676,10.);
#524=VECTOR('',#1679,10.);
#525=VECTOR('',#1680,10.);
#526=VECTOR('',#1681,10.);
#527=VECTOR('',#1684,10.);
#528=VECTOR('',#1685,10.);
#529=VECTOR('',#1688,10.);
#530=VECTOR('',#1691,10.);
#531=VECTOR('',#1692,10.);
#532=VECTOR('',#1693,10.);
#533=VECTOR('',#1696,10.);
#534=VECTOR('',#1697,10.);
#535=VECTOR('',#1700,10.);
#536=VECTOR('',#1701,10.);
#537=VECTOR('',#1704,10.);
#538=VECTOR('',#1707,10.);
#539=VECTOR('',#1708,10.);
#540=VECTOR('',#1709,10.);
#541=VECTOR('',#1712,10.);
#542=VECTOR('',#1713,10.);
#543=VECTOR('',#1716,10.);
#544=VECTOR('',#1719,10.);
#545=VECTOR('',#1720,10.);
#546=VECTOR('',#1721,10.);
#547=VECTOR('',#1724,10.);
#548=VECTOR('',#1725,10.);
#549=VECTOR('',#1728,10.);
#550=VECTOR('',#1731,10.);
#551=VECTOR('',#1732,10.);
#552=VECTOR('',#1733,10.);
#553=VECTOR('',#1736,10.);
#554=VECTOR('',#1737,10.);
#555=VECTOR('',#1740,10.);
#556=VECTOR('',#1743,10.);
#557=VECTOR('',#1744,10.);
#558=VECTOR('',#1745,10.);
#559=VECTOR('',#1748,10.);
#560=VECTOR('',#1749,10.);
#561=VECTOR('',#1752,10.);
#562=VECTOR('',#1755,10.);
#563=VECTOR('',#1756,10.);
#564=VECTOR('',#1757,10.);
#565=VECTOR('',#1760,10.);
#566=VECTOR('',#1761,10.);
#567=VECTOR('',#1764,10.);
#568=VECTOR('',#1767,10.);
#569=VECTOR('',#1768,10.);
#570=VECTOR('',#1769,10.);
#571=VECTOR('',#1772,10.);
#572=VECTOR('',#1773,10.);
#573=VECTOR('',#1776,10.);
#574=VECTOR('',#1779,10.);
#575=VECTOR('',#1780,10.);
#576=ELLIPSE('',#1342,0.461880215351701,0.4);
#577=ELLIPSE('',#1344,0.461880215351701,0.4);
#578=ELLIPSE('',#1347,0.461880215351701,0.4);
#579=ELLIPSE('',#1349,0.461880215351701,0.4);
#580=ELLIPSE('',#1352,0.461880215351701,0.4);
#581=ELLIPSE('',#1354,0.461880215351701,0.4);
#582=ELLIPSE('',#1357,0.461880215351701,0.4);
#583=ELLIPSE('',#1361,0.461880215351701,0.4);
#584=VERTEX_POINT('',#1809);
#585=VERTEX_POINT('',#1810);
#586=VERTEX_POINT('',#1812);
#587=VERTEX_POINT('',#1814);
#588=VERTEX_POINT('',#1816);
#589=VERTEX_POINT('',#1820);
#590=VERTEX_POINT('',#1822);
#591=VERTEX_POINT('',#1826);
#592=VERTEX_POINT('',#1828);
#593=VERTEX_POINT('',#1830);
#594=VERTEX_POINT('',#1834);
#595=VERTEX_POINT('',#1836);
#596=VERTEX_POINT('',#1838);
#597=VERTEX_POINT('',#1842);
#598=VERTEX_POINT('',#1844);
#599=VERTEX_POINT('',#1846);
#600=VERTEX_POINT('',#1850);
#601=VERTEX_POINT('',#1852);
#602=VERTEX_POINT('',#1854);
#603=VERTEX_POINT('',#1858);
#604=VERTEX_POINT('',#1862);
#605=VERTEX_POINT('',#1864);
#606=VERTEX_POINT('',#1868);
#607=VERTEX_POINT('',#1870);
#608=VERTEX_POINT('',#1879);
#609=VERTEX_POINT('',#1880);
#610=VERTEX_POINT('',#1882);
#611=VERTEX_POINT('',#1886);
#612=VERTEX_POINT('',#1887);
#613=VERTEX_POINT('',#1892);
#614=VERTEX_POINT('',#1893);
#615=VERTEX_POINT('',#1895);
#616=VERTEX_POINT('',#1899);
#617=VERTEX_POINT('',#1900);
#618=VERTEX_POINT('',#1905);
#619=VERTEX_POINT('',#1906);
#620=VERTEX_POINT('',#1908);
#621=VERTEX_POINT('',#1912);
#622=VERTEX_POINT('',#1913);
#623=VERTEX_POINT('',#1921);
#624=VERTEX_POINT('',#1922);
#625=VERTEX_POINT('',#1924);
#626=VERTEX_POINT('',#1928);
#627=VERTEX_POINT('',#1929);
#628=VERTEX_POINT('',#1950);
#629=VERTEX_POINT('',#1951);
#630=VERTEX_POINT('',#1953);
#631=VERTEX_POINT('',#1955);
#632=VERTEX_POINT('',#1958);
#633=VERTEX_POINT('',#1959);
#634=VERTEX_POINT('',#1961);
#635=VERTEX_POINT('',#1964);
#636=VERTEX_POINT('',#1965);
#637=VERTEX_POINT('',#1967);
#638=VERTEX_POINT('',#1970);
#639=VERTEX_POINT('',#1971);
#640=VERTEX_POINT('',#1973);
#641=VERTEX_POINT('',#1976);
#642=VERTEX_POINT('',#1977);
#643=VERTEX_POINT('',#1979);
#644=VERTEX_POINT('',#1981);
#645=VERTEX_POINT('',#1984);
#646=VERTEX_POINT('',#1985);
#647=VERTEX_POINT('',#1987);
#648=VERTEX_POINT('',#1990);
#649=VERTEX_POINT('',#1991);
#650=VERTEX_POINT('',#1993);
#651=VERTEX_POINT('',#1996);
#652=VERTEX_POINT('',#1997);
#653=VERTEX_POINT('',#1999);
#654=VERTEX_POINT('',#2002);
#655=VERTEX_POINT('',#2003);
#656=VERTEX_POINT('',#2005);
#657=VERTEX_POINT('',#2008);
#658=VERTEX_POINT('',#2009);
#659=VERTEX_POINT('',#2011);
#660=VERTEX_POINT('',#2014);
#661=VERTEX_POINT('',#2015);
#662=VERTEX_POINT('',#2017);
#663=VERTEX_POINT('',#2021);
#664=VERTEX_POINT('',#2022);
#665=VERTEX_POINT('',#2027);
#666=VERTEX_POINT('',#2031);
#667=VERTEX_POINT('',#2037);
#668=VERTEX_POINT('',#2038);
#669=VERTEX_POINT('',#2043);
#670=VERTEX_POINT('',#2049);
#671=VERTEX_POINT('',#2050);
#672=VERTEX_POINT('',#2055);
#673=VERTEX_POINT('',#2061);
#674=VERTEX_POINT('',#2062);
#675=VERTEX_POINT('',#2067);
#676=VERTEX_POINT('',#2073);
#677=VERTEX_POINT('',#2074);
#678=VERTEX_POINT('',#2079);
#679=VERTEX_POINT('',#2083);
#680=VERTEX_POINT('',#2089);
#681=VERTEX_POINT('',#2090);
#682=VERTEX_POINT('',#2095);
#683=VERTEX_POINT('',#2101);
#684=VERTEX_POINT('',#2102);
#685=VERTEX_POINT('',#2107);
#686=VERTEX_POINT('',#2113);
#687=VERTEX_POINT('',#2114);
#688=VERTEX_POINT('',#2119);
#689=VERTEX_POINT('',#2125);
#690=VERTEX_POINT('',#2126);
#691=VERTEX_POINT('',#2131);
#692=VERTEX_POINT('',#2137);
#693=VERTEX_POINT('',#2138);
#694=VERTEX_POINT('',#2143);
#695=VERTEX_POINT('',#2149);
#696=VERTEX_POINT('',#2150);
#697=VERTEX_POINT('',#2155);
#698=EDGE_CURVE('',#584,#585,#576,.T.);
#699=EDGE_CURVE('',#585,#586,#278,.T.);
#700=EDGE_CURVE('',#586,#587,#258,.F.);
#701=EDGE_CURVE('',#587,#588,#279,.T.);
#702=EDGE_CURVE('',#588,#584,#577,.T.);
#703=EDGE_CURVE('',#589,#585,#280,.T.);
#704=EDGE_CURVE('',#590,#589,#281,.T.);
#705=EDGE_CURVE('',#586,#590,#282,.T.);
#706=EDGE_CURVE('',#591,#584,#283,.T.);
#707=EDGE_CURVE('',#591,#592,#284,.T.);
#708=EDGE_CURVE('',#592,#593,#285,.T.);
#709=EDGE_CURVE('',#589,#593,#578,.T.);
#710=EDGE_CURVE('',#588,#594,#286,.T.);
#711=EDGE_CURVE('',#595,#594,#579,.T.);
#712=EDGE_CURVE('',#596,#595,#287,.T.);
#713=EDGE_CURVE('',#596,#591,#288,.T.);
#714=EDGE_CURVE('',#594,#597,#289,.T.);
#715=EDGE_CURVE('',#597,#598,#259,.F.);
#716=EDGE_CURVE('',#598,#599,#290,.T.);
#717=EDGE_CURVE('',#599,#595,#580,.T.);
#718=EDGE_CURVE('',#599,#600,#291,.T.);
#719=EDGE_CURVE('',#601,#600,#581,.T.);
#720=EDGE_CURVE('',#602,#601,#292,.T.);
#721=EDGE_CURVE('',#602,#596,#293,.T.);
#722=EDGE_CURVE('',#603,#598,#294,.T.);
#723=EDGE_CURVE('',#600,#603,#295,.T.);
#724=EDGE_CURVE('',#593,#604,#582,.T.);
#725=EDGE_CURVE('',#604,#605,#296,.T.);
#726=EDGE_CURVE('',#605,#590,#260,.F.);
#727=EDGE_CURVE('',#606,#604,#297,.T.);
#728=EDGE_CURVE('',#607,#606,#298,.T.);
#729=EDGE_CURVE('',#605,#607,#299,.T.);
#730=EDGE_CURVE('',#592,#602,#300,.T.);
#731=EDGE_CURVE('',#606,#601,#583,.T.);
#732=EDGE_CURVE('',#603,#607,#261,.F.);
#733=EDGE_CURVE('',#608,#609,#262,.F.);
#734=EDGE_CURVE('',#610,#608,#263,.F.);
#735=EDGE_CURVE('',#609,#610,#264,.F.);
#736=EDGE_CURVE('',#611,#612,#265,.T.);
#737=EDGE_CURVE('',#612,#610,#301,.T.);
#738=EDGE_CURVE('',#608,#611,#302,.T.);
#739=EDGE_CURVE('',#613,#614,#266,.F.);
#740=EDGE_CURVE('',#615,#613,#267,.F.);
#741=EDGE_CURVE('',#614,#615,#268,.F.);
#742=EDGE_CURVE('',#616,#617,#269,.T.);
#743=EDGE_CURVE('',#617,#615,#303,.T.);
#744=EDGE_CURVE('',#613,#616,#304,.T.);
#745=EDGE_CURVE('',#618,#619,#270,.F.);
#746=EDGE_CURVE('',#620,#618,#271,.F.);
#747=EDGE_CURVE('',#619,#620,#272,.F.);
#748=EDGE_CURVE('',#621,#622,#273,.T.);
#749=EDGE_CURVE('',#622,#620,#305,.T.);
#750=EDGE_CURVE('',#618,#621,#306,.T.);
#751=EDGE_CURVE('',#609,#619,#307,.T.);
#752=EDGE_CURVE('',#620,#608,#308,.T.);
#753=EDGE_CURVE('',#623,#624,#274,.F.);
#754=EDGE_CURVE('',#625,#623,#275,.F.);
#755=EDGE_CURVE('',#624,#625,#276,.F.);
#756=EDGE_CURVE('',#626,#627,#277,.T.);
#757=EDGE_CURVE('',#627,#625,#309,.T.);
#758=EDGE_CURVE('',#623,#626,#310,.T.);
#759=EDGE_CURVE('',#619,#624,#311,.T.);
#760=EDGE_CURVE('',#625,#618,#312,.T.);
#761=EDGE_CURVE('',#624,#614,#313,.T.);
#762=EDGE_CURVE('',#615,#623,#314,.T.);
#763=EDGE_CURVE('',#614,#609,#315,.T.);
#764=EDGE_CURVE('',#610,#613,#316,.T.);
#765=EDGE_CURVE('',#611,#622,#317,.T.);
#766=EDGE_CURVE('',#621,#627,#318,.T.);
#767=EDGE_CURVE('',#597,#587,#319,.T.);
#768=EDGE_CURVE('',#628,#629,#320,.T.);
#769=EDGE_CURVE('',#629,#630,#321,.T.);
#770=EDGE_CURVE('',#630,#631,#322,.T.);
#771=EDGE_CURVE('',#631,#628,#323,.T.);
#772=EDGE_CURVE('',#632,#633,#324,.T.);
#773=EDGE_CURVE('',#633,#634,#325,.T.);
#774=EDGE_CURVE('',#634,#632,#326,.T.);
#775=EDGE_CURVE('',#635,#636,#327,.T.);
#776=EDGE_CURVE('',#636,#637,#328,.T.);
#777=EDGE_CURVE('',#637,#635,#329,.T.);
#778=EDGE_CURVE('',#638,#639,#330,.T.);
#779=EDGE_CURVE('',#639,#640,#331,.T.);
#780=EDGE_CURVE('',#640,#638,#332,.T.);
#781=EDGE_CURVE('',#641,#642,#333,.T.);
#782=EDGE_CURVE('',#642,#643,#334,.T.);
#783=EDGE_CURVE('',#643,#644,#335,.T.);
#784=EDGE_CURVE('',#644,#641,#336,.T.);
#785=EDGE_CURVE('',#645,#646,#337,.T.);
#786=EDGE_CURVE('',#646,#647,#338,.T.);
#787=EDGE_CURVE('',#647,#645,#339,.T.);
#788=EDGE_CURVE('',#648,#649,#340,.T.);
#789=EDGE_CURVE('',#649,#650,#341,.T.);
#790=EDGE_CURVE('',#650,#648,#342,.T.);
#791=EDGE_CURVE('',#651,#652,#343,.T.);
#792=EDGE_CURVE('',#652,#653,#344,.T.);
#793=EDGE_CURVE('',#653,#651,#345,.T.);
#794=EDGE_CURVE('',#654,#655,#346,.T.);
#795=EDGE_CURVE('',#655,#656,#347,.T.);
#796=EDGE_CURVE('',#656,#654,#348,.T.);
#797=EDGE_CURVE('',#657,#658,#349,.T.);
#798=EDGE_CURVE('',#658,#659,#350,.T.);
#799=EDGE_CURVE('',#659,#657,#351,.T.);
#800=EDGE_CURVE('',#660,#661,#352,.T.);
#801=EDGE_CURVE('',#661,#662,#353,.T.);
#802=EDGE_CURVE('',#662,#660,#354,.T.);
#803=EDGE_CURVE('',#663,#664,#355,.T.);
#804=EDGE_CURVE('',#663,#628,#356,.T.);
#805=EDGE_CURVE('',#664,#631,#357,.T.);
#806=EDGE_CURVE('',#664,#665,#358,.T.);
#807=EDGE_CURVE('',#665,#630,#359,.T.);
#808=EDGE_CURVE('',#665,#666,#360,.T.);
#809=EDGE_CURVE('',#666,#629,#361,.T.);
#810=EDGE_CURVE('',#666,#663,#362,.T.);
#811=EDGE_CURVE('',#667,#668,#363,.T.);
#812=EDGE_CURVE('',#667,#632,#364,.T.);
#813=EDGE_CURVE('',#668,#634,#365,.T.);
#814=EDGE_CURVE('',#668,#669,#366,.T.);
#815=EDGE_CURVE('',#669,#633,#367,.T.);
#816=EDGE_CURVE('',#669,#667,#368,.T.);
#817=EDGE_CURVE('',#670,#671,#369,.T.);
#818=EDGE_CURVE('',#670,#635,#370,.T.);
#819=EDGE_CURVE('',#671,#637,#371,.T.);
#820=EDGE_CURVE('',#671,#672,#372,.T.);
#821=EDGE_CURVE('',#672,#636,#373,.T.);
#822=EDGE_CURVE('',#672,#670,#374,.T.);
#823=EDGE_CURVE('',#673,#674,#375,.T.);
#824=EDGE_CURVE('',#673,#638,#376,.T.);
#825=EDGE_CURVE('',#674,#640,#377,.T.);
#826=EDGE_CURVE('',#674,#675,#378,.T.);
#827=EDGE_CURVE('',#675,#639,#379,.T.);
#828=EDGE_CURVE('',#675,#673,#380,.T.);
#829=EDGE_CURVE('',#676,#677,#381,.T.);
#830=EDGE_CURVE('',#676,#641,#382,.T.);
#831=EDGE_CURVE('',#677,#644,#383,.T.);
#832=EDGE_CURVE('',#677,#678,#384,.T.);
#833=EDGE_CURVE('',#678,#643,#385,.T.);
#834=EDGE_CURVE('',#678,#679,#386,.T.);
#835=EDGE_CURVE('',#679,#642,#387,.T.);
#836=EDGE_CURVE('',#679,#676,#388,.T.);
#837=EDGE_CURVE('',#680,#681,#389,.T.);
#838=EDGE_CURVE('',#680,#645,#390,.T.);
#839=EDGE_CURVE('',#681,#647,#391,.T.);
#840=EDGE_CURVE('',#681,#682,#392,.T.);
#841=EDGE_CURVE('',#682,#646,#393,.T.);
#842=EDGE_CURVE('',#682,#680,#394,.T.);
#843=EDGE_CURVE('',#683,#684,#395,.T.);
#844=EDGE_CURVE('',#683,#648,#396,.T.);
#845=EDGE_CURVE('',#684,#650,#397,.T.);
#846=EDGE_CURVE('',#684,#685,#398,.T.);
#847=EDGE_CURVE('',#685,#649,#399,.T.);
#848=EDGE_CURVE('',#685,#683,#400,.T.);
#849=EDGE_CURVE('',#686,#687,#401,.T.);
#850=EDGE_CURVE('',#686,#651,#402,.T.);
#851=EDGE_CURVE('',#687,#653,#403,.T.);
#852=EDGE_CURVE('',#687,#688,#404,.T.);
#853=EDGE_CURVE('',#688,#652,#405,.T.);
#854=EDGE_CURVE('',#688,#686,#406,.T.);
#855=EDGE_CURVE('',#689,#690,#407,.T.);
#856=EDGE_CURVE('',#689,#654,#408,.T.);
#857=EDGE_CURVE('',#690,#656,#409,.T.);
#858=EDGE_CURVE('',#690,#691,#410,.T.);
#859=EDGE_CURVE('',#691,#655,#411,.T.);
#860=EDGE_CURVE('',#691,#689,#412,.T.);
#861=EDGE_CURVE('',#692,#693,#413,.T.);
#862=EDGE_CURVE('',#692,#657,#414,.T.);
#863=EDGE_CURVE('',#693,#659,#415,.T.);
#864=EDGE_CURVE('',#693,#694,#416,.T.);
#865=EDGE_CURVE('',#694,#658,#417,.T.);
#866=EDGE_CURVE('',#694,#692,#418,.T.);
#867=EDGE_CURVE('',#695,#696,#419,.T.);
#868=EDGE_CURVE('',#695,#660,#420,.T.);
#869=EDGE_CURVE('',#696,#662,#421,.T.);
#870=EDGE_CURVE('',#696,#697,#422,.T.);
#871=EDGE_CURVE('',#697,#661,#423,.T.);
#872=EDGE_CURVE('',#697,#695,#424,.T.);
#873=EDGE_CURVE('',#626,#617,#425,.T.);
#874=EDGE_CURVE('',#616,#612,#426,.T.);
#875=ORIENTED_EDGE('',*,*,#698,.T.);
#876=ORIENTED_EDGE('',*,*,#699,.T.);
#877=ORIENTED_EDGE('',*,*,#700,.T.);
#878=ORIENTED_EDGE('',*,*,#701,.T.);
#879=ORIENTED_EDGE('',*,*,#702,.T.);
#880=ORIENTED_EDGE('',*,*,#699,.F.);
#881=ORIENTED_EDGE('',*,*,#703,.F.);
#882=ORIENTED_EDGE('',*,*,#704,.F.);
#883=ORIENTED_EDGE('',*,*,#705,.F.);
#884=ORIENTED_EDGE('',*,*,#698,.F.);
#885=ORIENTED_EDGE('',*,*,#706,.F.);
#886=ORIENTED_EDGE('',*,*,#707,.T.);
#887=ORIENTED_EDGE('',*,*,#708,.T.);
#888=ORIENTED_EDGE('',*,*,#709,.F.);
#889=ORIENTED_EDGE('',*,*,#703,.T.);
#890=ORIENTED_EDGE('',*,*,#702,.F.);
#891=ORIENTED_EDGE('',*,*,#710,.T.);
#892=ORIENTED_EDGE('',*,*,#711,.F.);
#893=ORIENTED_EDGE('',*,*,#712,.F.);
#894=ORIENTED_EDGE('',*,*,#713,.T.);
#895=ORIENTED_EDGE('',*,*,#706,.T.);
#896=ORIENTED_EDGE('',*,*,#711,.T.);
#897=ORIENTED_EDGE('',*,*,#714,.T.);
#898=ORIENTED_EDGE('',*,*,#715,.T.);
#899=ORIENTED_EDGE('',*,*,#716,.T.);
#900=ORIENTED_EDGE('',*,*,#717,.T.);
#901=ORIENTED_EDGE('',*,*,#717,.F.);
#902=ORIENTED_EDGE('',*,*,#718,.T.);
#903=ORIENTED_EDGE('',*,*,#719,.F.);
#904=ORIENTED_EDGE('',*,*,#720,.F.);
#905=ORIENTED_EDGE('',*,*,#721,.T.);
#906=ORIENTED_EDGE('',*,*,#712,.T.);
#907=ORIENTED_EDGE('',*,*,#716,.F.);
#908=ORIENTED_EDGE('',*,*,#722,.F.);
#909=ORIENTED_EDGE('',*,*,#723,.F.);
#910=ORIENTED_EDGE('',*,*,#718,.F.);
#911=ORIENTED_EDGE('',*,*,#724,.T.);
#912=ORIENTED_EDGE('',*,*,#725,.T.);
#913=ORIENTED_EDGE('',*,*,#726,.T.);
#914=ORIENTED_EDGE('',*,*,#704,.T.);
#915=ORIENTED_EDGE('',*,*,#709,.T.);
#916=ORIENTED_EDGE('',*,*,#725,.F.);
#917=ORIENTED_EDGE('',*,*,#727,.F.);
#918=ORIENTED_EDGE('',*,*,#728,.F.);
#919=ORIENTED_EDGE('',*,*,#729,.F.);
#920=ORIENTED_EDGE('',*,*,#724,.F.);
#921=ORIENTED_EDGE('',*,*,#708,.F.);
#922=ORIENTED_EDGE('',*,*,#730,.T.);
#923=ORIENTED_EDGE('',*,*,#720,.T.);
#924=ORIENTED_EDGE('',*,*,#731,.F.);
#925=ORIENTED_EDGE('',*,*,#727,.T.);
#926=ORIENTED_EDGE('',*,*,#719,.T.);
#927=ORIENTED_EDGE('',*,*,#723,.T.);
#928=ORIENTED_EDGE('',*,*,#732,.T.);
#929=ORIENTED_EDGE('',*,*,#728,.T.);
#930=ORIENTED_EDGE('',*,*,#731,.T.);
#931=ORIENTED_EDGE('',*,*,#733,.F.);
#932=ORIENTED_EDGE('',*,*,#734,.F.);
#933=ORIENTED_EDGE('',*,*,#735,.F.);
#934=ORIENTED_EDGE('',*,*,#736,.T.);
#935=ORIENTED_EDGE('',*,*,#737,.T.);
#936=ORIENTED_EDGE('',*,*,#734,.T.);
#937=ORIENTED_EDGE('',*,*,#738,.T.);
#938=ORIENTED_EDGE('',*,*,#739,.F.);
#939=ORIENTED_EDGE('',*,*,#740,.F.);
#940=ORIENTED_EDGE('',*,*,#741,.F.);
#941=ORIENTED_EDGE('',*,*,#742,.T.);
#942=ORIENTED_EDGE('',*,*,#743,.T.);
#943=ORIENTED_EDGE('',*,*,#740,.T.);
#944=ORIENTED_EDGE('',*,*,#744,.T.);
#945=ORIENTED_EDGE('',*,*,#745,.F.);
#946=ORIENTED_EDGE('',*,*,#746,.F.);
#947=ORIENTED_EDGE('',*,*,#747,.F.);
#948=ORIENTED_EDGE('',*,*,#748,.T.);
#949=ORIENTED_EDGE('',*,*,#749,.T.);
#950=ORIENTED_EDGE('',*,*,#746,.T.);
#951=ORIENTED_EDGE('',*,*,#750,.T.);
#952=ORIENTED_EDGE('',*,*,#733,.T.);
#953=ORIENTED_EDGE('',*,*,#751,.T.);
#954=ORIENTED_EDGE('',*,*,#747,.T.);
#955=ORIENTED_EDGE('',*,*,#752,.T.);
#956=ORIENTED_EDGE('',*,*,#753,.F.);
#957=ORIENTED_EDGE('',*,*,#754,.F.);
#958=ORIENTED_EDGE('',*,*,#755,.F.);
#959=ORIENTED_EDGE('',*,*,#756,.T.);
#960=ORIENTED_EDGE('',*,*,#757,.T.);
#961=ORIENTED_EDGE('',*,*,#754,.T.);
#962=ORIENTED_EDGE('',*,*,#758,.T.);
#963=ORIENTED_EDGE('',*,*,#745,.T.);
#964=ORIENTED_EDGE('',*,*,#759,.T.);
#965=ORIENTED_EDGE('',*,*,#755,.T.);
#966=ORIENTED_EDGE('',*,*,#760,.T.);
#967=ORIENTED_EDGE('',*,*,#753,.T.);
#968=ORIENTED_EDGE('',*,*,#761,.T.);
#969=ORIENTED_EDGE('',*,*,#741,.T.);
#970=ORIENTED_EDGE('',*,*,#762,.T.);
#971=ORIENTED_EDGE('',*,*,#739,.T.);
#972=ORIENTED_EDGE('',*,*,#763,.T.);
#973=ORIENTED_EDGE('',*,*,#735,.T.);
#974=ORIENTED_EDGE('',*,*,#764,.T.);
#975=ORIENTED_EDGE('',*,*,#738,.F.);
#976=ORIENTED_EDGE('',*,*,#752,.F.);
#977=ORIENTED_EDGE('',*,*,#749,.F.);
#978=ORIENTED_EDGE('',*,*,#765,.F.);
#979=ORIENTED_EDGE('',*,*,#750,.F.);
#980=ORIENTED_EDGE('',*,*,#760,.F.);
#981=ORIENTED_EDGE('',*,*,#757,.F.);
#982=ORIENTED_EDGE('',*,*,#766,.F.);
#983=ORIENTED_EDGE('',*,*,#751,.F.);
#984=ORIENTED_EDGE('',*,*,#763,.F.);
#985=ORIENTED_EDGE('',*,*,#761,.F.);
#986=ORIENTED_EDGE('',*,*,#759,.F.);
#987=ORIENTED_EDGE('',*,*,#701,.F.);
#988=ORIENTED_EDGE('',*,*,#767,.F.);
#989=ORIENTED_EDGE('',*,*,#714,.F.);
#990=ORIENTED_EDGE('',*,*,#710,.F.);
#991=ORIENTED_EDGE('',*,*,#707,.F.);
#992=ORIENTED_EDGE('',*,*,#713,.F.);
#993=ORIENTED_EDGE('',*,*,#721,.F.);
#994=ORIENTED_EDGE('',*,*,#730,.F.);
#995=ORIENTED_EDGE('',*,*,#768,.T.);
#996=ORIENTED_EDGE('',*,*,#769,.T.);
#997=ORIENTED_EDGE('',*,*,#770,.T.);
#998=ORIENTED_EDGE('',*,*,#771,.T.);
#999=ORIENTED_EDGE('',*,*,#772,.T.);
#1000=ORIENTED_EDGE('',*,*,#773,.T.);
#1001=ORIENTED_EDGE('',*,*,#774,.T.);
#1002=ORIENTED_EDGE('',*,*,#775,.T.);
#1003=ORIENTED_EDGE('',*,*,#776,.T.);
#1004=ORIENTED_EDGE('',*,*,#777,.T.);
#1005=ORIENTED_EDGE('',*,*,#778,.T.);
#1006=ORIENTED_EDGE('',*,*,#779,.T.);
#1007=ORIENTED_EDGE('',*,*,#780,.T.);
#1008=ORIENTED_EDGE('',*,*,#781,.T.);
#1009=ORIENTED_EDGE('',*,*,#782,.T.);
#1010=ORIENTED_EDGE('',*,*,#783,.T.);
#1011=ORIENTED_EDGE('',*,*,#784,.T.);
#1012=ORIENTED_EDGE('',*,*,#785,.T.);
#1013=ORIENTED_EDGE('',*,*,#786,.T.);
#1014=ORIENTED_EDGE('',*,*,#787,.T.);
#1015=ORIENTED_EDGE('',*,*,#788,.T.);
#1016=ORIENTED_EDGE('',*,*,#789,.T.);
#1017=ORIENTED_EDGE('',*,*,#790,.T.);
#1018=ORIENTED_EDGE('',*,*,#791,.T.);
#1019=ORIENTED_EDGE('',*,*,#792,.T.);
#1020=ORIENTED_EDGE('',*,*,#793,.T.);
#1021=ORIENTED_EDGE('',*,*,#794,.T.);
#1022=ORIENTED_EDGE('',*,*,#795,.T.);
#1023=ORIENTED_EDGE('',*,*,#796,.T.);
#1024=ORIENTED_EDGE('',*,*,#797,.T.);
#1025=ORIENTED_EDGE('',*,*,#798,.T.);
#1026=ORIENTED_EDGE('',*,*,#799,.T.);
#1027=ORIENTED_EDGE('',*,*,#800,.T.);
#1028=ORIENTED_EDGE('',*,*,#801,.T.);
#1029=ORIENTED_EDGE('',*,*,#802,.T.);
#1030=ORIENTED_EDGE('',*,*,#803,.F.);
#1031=ORIENTED_EDGE('',*,*,#804,.T.);
#1032=ORIENTED_EDGE('',*,*,#771,.F.);
#1033=ORIENTED_EDGE('',*,*,#805,.F.);
#1034=ORIENTED_EDGE('',*,*,#806,.F.);
#1035=ORIENTED_EDGE('',*,*,#805,.T.);
#1036=ORIENTED_EDGE('',*,*,#770,.F.);
#1037=ORIENTED_EDGE('',*,*,#807,.F.);
#1038=ORIENTED_EDGE('',*,*,#808,.F.);
#1039=ORIENTED_EDGE('',*,*,#807,.T.);
#1040=ORIENTED_EDGE('',*,*,#769,.F.);
#1041=ORIENTED_EDGE('',*,*,#809,.F.);
#1042=ORIENTED_EDGE('',*,*,#810,.F.);
#1043=ORIENTED_EDGE('',*,*,#809,.T.);
#1044=ORIENTED_EDGE('',*,*,#768,.F.);
#1045=ORIENTED_EDGE('',*,*,#804,.F.);
#1046=ORIENTED_EDGE('',*,*,#811,.F.);
#1047=ORIENTED_EDGE('',*,*,#812,.T.);
#1048=ORIENTED_EDGE('',*,*,#774,.F.);
#1049=ORIENTED_EDGE('',*,*,#813,.F.);
#1050=ORIENTED_EDGE('',*,*,#814,.F.);
#1051=ORIENTED_EDGE('',*,*,#813,.T.);
#1052=ORIENTED_EDGE('',*,*,#773,.F.);
#1053=ORIENTED_EDGE('',*,*,#815,.F.);
#1054=ORIENTED_EDGE('',*,*,#816,.F.);
#1055=ORIENTED_EDGE('',*,*,#815,.T.);
#1056=ORIENTED_EDGE('',*,*,#772,.F.);
#1057=ORIENTED_EDGE('',*,*,#812,.F.);
#1058=ORIENTED_EDGE('',*,*,#817,.F.);
#1059=ORIENTED_EDGE('',*,*,#818,.T.);
#1060=ORIENTED_EDGE('',*,*,#777,.F.);
#1061=ORIENTED_EDGE('',*,*,#819,.F.);
#1062=ORIENTED_EDGE('',*,*,#820,.F.);
#1063=ORIENTED_EDGE('',*,*,#819,.T.);
#1064=ORIENTED_EDGE('',*,*,#776,.F.);
#1065=ORIENTED_EDGE('',*,*,#821,.F.);
#1066=ORIENTED_EDGE('',*,*,#822,.F.);
#1067=ORIENTED_EDGE('',*,*,#821,.T.);
#1068=ORIENTED_EDGE('',*,*,#775,.F.);
#1069=ORIENTED_EDGE('',*,*,#818,.F.);
#1070=ORIENTED_EDGE('',*,*,#823,.F.);
#1071=ORIENTED_EDGE('',*,*,#824,.T.);
#1072=ORIENTED_EDGE('',*,*,#780,.F.);
#1073=ORIENTED_EDGE('',*,*,#825,.F.);
#1074=ORIENTED_EDGE('',*,*,#826,.F.);
#1075=ORIENTED_EDGE('',*,*,#825,.T.);
#1076=ORIENTED_EDGE('',*,*,#779,.F.);
#1077=ORIENTED_EDGE('',*,*,#827,.F.);
#1078=ORIENTED_EDGE('',*,*,#828,.F.);
#1079=ORIENTED_EDGE('',*,*,#827,.T.);
#1080=ORIENTED_EDGE('',*,*,#778,.F.);
#1081=ORIENTED_EDGE('',*,*,#824,.F.);
#1082=ORIENTED_EDGE('',*,*,#829,.F.);
#1083=ORIENTED_EDGE('',*,*,#830,.T.);
#1084=ORIENTED_EDGE('',*,*,#784,.F.);
#1085=ORIENTED_EDGE('',*,*,#831,.F.);
#1086=ORIENTED_EDGE('',*,*,#832,.F.);
#1087=ORIENTED_EDGE('',*,*,#831,.T.);
#1088=ORIENTED_EDGE('',*,*,#783,.F.);
#1089=ORIENTED_EDGE('',*,*,#833,.F.);
#1090=ORIENTED_EDGE('',*,*,#834,.F.);
#1091=ORIENTED_EDGE('',*,*,#833,.T.);
#1092=ORIENTED_EDGE('',*,*,#782,.F.);
#1093=ORIENTED_EDGE('',*,*,#835,.F.);
#1094=ORIENTED_EDGE('',*,*,#836,.F.);
#1095=ORIENTED_EDGE('',*,*,#835,.T.);
#1096=ORIENTED_EDGE('',*,*,#781,.F.);
#1097=ORIENTED_EDGE('',*,*,#830,.F.);
#1098=ORIENTED_EDGE('',*,*,#837,.F.);
#1099=ORIENTED_EDGE('',*,*,#838,.T.);
#1100=ORIENTED_EDGE('',*,*,#787,.F.);
#1101=ORIENTED_EDGE('',*,*,#839,.F.);
#1102=ORIENTED_EDGE('',*,*,#840,.F.);
#1103=ORIENTED_EDGE('',*,*,#839,.T.);
#1104=ORIENTED_EDGE('',*,*,#786,.F.);
#1105=ORIENTED_EDGE('',*,*,#841,.F.);
#1106=ORIENTED_EDGE('',*,*,#842,.F.);
#1107=ORIENTED_EDGE('',*,*,#841,.T.);
#1108=ORIENTED_EDGE('',*,*,#785,.F.);
#1109=ORIENTED_EDGE('',*,*,#838,.F.);
#1110=ORIENTED_EDGE('',*,*,#843,.F.);
#1111=ORIENTED_EDGE('',*,*,#844,.T.);
#1112=ORIENTED_EDGE('',*,*,#790,.F.);
#1113=ORIENTED_EDGE('',*,*,#845,.F.);
#1114=ORIENTED_EDGE('',*,*,#846,.F.);
#1115=ORIENTED_EDGE('',*,*,#845,.T.);
#1116=ORIENTED_EDGE('',*,*,#789,.F.);
#1117=ORIENTED_EDGE('',*,*,#847,.F.);
#1118=ORIENTED_EDGE('',*,*,#848,.F.);
#1119=ORIENTED_EDGE('',*,*,#847,.T.);
#1120=ORIENTED_EDGE('',*,*,#788,.F.);
#1121=ORIENTED_EDGE('',*,*,#844,.F.);
#1122=ORIENTED_EDGE('',*,*,#849,.F.);
#1123=ORIENTED_EDGE('',*,*,#850,.T.);
#1124=ORIENTED_EDGE('',*,*,#793,.F.);
#1125=ORIENTED_EDGE('',*,*,#851,.F.);
#1126=ORIENTED_EDGE('',*,*,#852,.F.);
#1127=ORIENTED_EDGE('',*,*,#851,.T.);
#1128=ORIENTED_EDGE('',*,*,#792,.F.);
#1129=ORIENTED_EDGE('',*,*,#853,.F.);
#1130=ORIENTED_EDGE('',*,*,#854,.F.);
#1131=ORIENTED_EDGE('',*,*,#853,.T.);
#1132=ORIENTED_EDGE('',*,*,#791,.F.);
#1133=ORIENTED_EDGE('',*,*,#850,.F.);
#1134=ORIENTED_EDGE('',*,*,#855,.F.);
#1135=ORIENTED_EDGE('',*,*,#856,.T.);
#1136=ORIENTED_EDGE('',*,*,#796,.F.);
#1137=ORIENTED_EDGE('',*,*,#857,.F.);
#1138=ORIENTED_EDGE('',*,*,#858,.F.);
#1139=ORIENTED_EDGE('',*,*,#857,.T.);
#1140=ORIENTED_EDGE('',*,*,#795,.F.);
#1141=ORIENTED_EDGE('',*,*,#859,.F.);
#1142=ORIENTED_EDGE('',*,*,#860,.F.);
#1143=ORIENTED_EDGE('',*,*,#859,.T.);
#1144=ORIENTED_EDGE('',*,*,#794,.F.);
#1145=ORIENTED_EDGE('',*,*,#856,.F.);
#1146=ORIENTED_EDGE('',*,*,#861,.F.);
#1147=ORIENTED_EDGE('',*,*,#862,.T.);
#1148=ORIENTED_EDGE('',*,*,#799,.F.);
#1149=ORIENTED_EDGE('',*,*,#863,.F.);
#1150=ORIENTED_EDGE('',*,*,#864,.F.);
#1151=ORIENTED_EDGE('',*,*,#863,.T.);
#1152=ORIENTED_EDGE('',*,*,#798,.F.);
#1153=ORIENTED_EDGE('',*,*,#865,.F.);
#1154=ORIENTED_EDGE('',*,*,#866,.F.);
#1155=ORIENTED_EDGE('',*,*,#865,.T.);
#1156=ORIENTED_EDGE('',*,*,#797,.F.);
#1157=ORIENTED_EDGE('',*,*,#862,.F.);
#1158=ORIENTED_EDGE('',*,*,#867,.F.);
#1159=ORIENTED_EDGE('',*,*,#868,.T.);
#1160=ORIENTED_EDGE('',*,*,#802,.F.);
#1161=ORIENTED_EDGE('',*,*,#869,.F.);
#1162=ORIENTED_EDGE('',*,*,#870,.F.);
#1163=ORIENTED_EDGE('',*,*,#869,.T.);
#1164=ORIENTED_EDGE('',*,*,#801,.F.);
#1165=ORIENTED_EDGE('',*,*,#871,.F.);
#1166=ORIENTED_EDGE('',*,*,#872,.F.);
#1167=ORIENTED_EDGE('',*,*,#871,.T.);
#1168=ORIENTED_EDGE('',*,*,#800,.F.);
#1169=ORIENTED_EDGE('',*,*,#868,.F.);
#1170=ORIENTED_EDGE('',*,*,#736,.F.);
#1171=ORIENTED_EDGE('',*,*,#765,.T.);
#1172=ORIENTED_EDGE('',*,*,#748,.F.);
#1173=ORIENTED_EDGE('',*,*,#766,.T.);
#1174=ORIENTED_EDGE('',*,*,#756,.F.);
#1175=ORIENTED_EDGE('',*,*,#873,.T.);
#1176=ORIENTED_EDGE('',*,*,#742,.F.);
#1177=ORIENTED_EDGE('',*,*,#874,.T.);
#1178=ORIENTED_EDGE('',*,*,#729,.T.);
#1179=ORIENTED_EDGE('',*,*,#732,.F.);
#1180=ORIENTED_EDGE('',*,*,#722,.T.);
#1181=ORIENTED_EDGE('',*,*,#715,.F.);
#1182=ORIENTED_EDGE('',*,*,#767,.T.);
#1183=ORIENTED_EDGE('',*,*,#700,.F.);
#1184=ORIENTED_EDGE('',*,*,#705,.T.);
#1185=ORIENTED_EDGE('',*,*,#726,.F.);
#1186=ORIENTED_EDGE('',*,*,#867,.T.);
#1187=ORIENTED_EDGE('',*,*,#870,.T.);
#1188=ORIENTED_EDGE('',*,*,#872,.T.);
#1189=ORIENTED_EDGE('',*,*,#861,.T.);
#1190=ORIENTED_EDGE('',*,*,#864,.T.);
#1191=ORIENTED_EDGE('',*,*,#866,.T.);
#1192=ORIENTED_EDGE('',*,*,#855,.T.);
#1193=ORIENTED_EDGE('',*,*,#858,.T.);
#1194=ORIENTED_EDGE('',*,*,#860,.T.);
#1195=ORIENTED_EDGE('',*,*,#849,.T.);
#1196=ORIENTED_EDGE('',*,*,#852,.T.);
#1197=ORIENTED_EDGE('',*,*,#854,.T.);
#1198=ORIENTED_EDGE('',*,*,#843,.T.);
#1199=ORIENTED_EDGE('',*,*,#846,.T.);
#1200=ORIENTED_EDGE('',*,*,#848,.T.);
#1201=ORIENTED_EDGE('',*,*,#837,.T.);
#1202=ORIENTED_EDGE('',*,*,#840,.T.);
#1203=ORIENTED_EDGE('',*,*,#842,.T.);
#1204=ORIENTED_EDGE('',*,*,#829,.T.);
#1205=ORIENTED_EDGE('',*,*,#832,.T.);
#1206=ORIENTED_EDGE('',*,*,#834,.T.);
#1207=ORIENTED_EDGE('',*,*,#836,.T.);
#1208=ORIENTED_EDGE('',*,*,#823,.T.);
#1209=ORIENTED_EDGE('',*,*,#826,.T.);
#1210=ORIENTED_EDGE('',*,*,#828,.T.);
#1211=ORIENTED_EDGE('',*,*,#817,.T.);
#1212=ORIENTED_EDGE('',*,*,#820,.T.);
#1213=ORIENTED_EDGE('',*,*,#822,.T.);
#1214=ORIENTED_EDGE('',*,*,#811,.T.);
#1215=ORIENTED_EDGE('',*,*,#814,.T.);
#1216=ORIENTED_EDGE('',*,*,#816,.T.);
#1217=ORIENTED_EDGE('',*,*,#737,.F.);
#1218=ORIENTED_EDGE('',*,*,#874,.F.);
#1219=ORIENTED_EDGE('',*,*,#744,.F.);
#1220=ORIENTED_EDGE('',*,*,#764,.F.);
#1221=ORIENTED_EDGE('',*,*,#743,.F.);
#1222=ORIENTED_EDGE('',*,*,#873,.F.);
#1223=ORIENTED_EDGE('',*,*,#758,.F.);
#1224=ORIENTED_EDGE('',*,*,#762,.F.);
#1225=ORIENTED_EDGE('',*,*,#803,.T.);
#1226=ORIENTED_EDGE('',*,*,#806,.T.);
#1227=ORIENTED_EDGE('',*,*,#808,.T.);
#1228=ORIENTED_EDGE('',*,*,#810,.T.);
#1229=CYLINDRICAL_SURFACE('',#1341,0.4);
#1230=CYLINDRICAL_SURFACE('',#1350,0.4);
#1231=CYLINDRICAL_SURFACE('',#1356,0.4);
#1232=CYLINDRICAL_SURFACE('',#1362,0.4);
#1233=CYLINDRICAL_SURFACE('',#1368,0.4);
#1234=CYLINDRICAL_SURFACE('',#1374,0.4);
#1235=CYLINDRICAL_SURFACE('',#1380,0.4);
#1236=CYLINDRICAL_SURFACE('',#1382,0.4);
#1237=CYLINDRICAL_SURFACE('',#1387,0.4);
#1238=CYLINDRICAL_SURFACE('',#1389,0.4);
#1239=CYLINDRICAL_SURFACE('',#1390,0.4);
#1240=CYLINDRICAL_SURFACE('',#1391,0.4);
#1241=ADVANCED_FACE('',(#92),#1229,.T.);
#1242=ADVANCED_FACE('',(#93),#31,.T.);
#1243=ADVANCED_FACE('',(#94),#32,.T.);
#1244=ADVANCED_FACE('',(#95),#33,.T.);
#1245=ADVANCED_FACE('',(#96),#1230,.T.);
#1246=ADVANCED_FACE('',(#97),#34,.T.);
#1247=ADVANCED_FACE('',(#98),#35,.T.);
#1248=ADVANCED_FACE('',(#99),#1231,.T.);
#1249=ADVANCED_FACE('',(#100),#36,.T.);
#1250=ADVANCED_FACE('',(#101),#37,.T.);
#1251=ADVANCED_FACE('',(#102),#1232,.T.);
#1252=ADVANCED_FACE('',(#103),#27,.T.);
#1253=ADVANCED_FACE('',(#104),#1233,.T.);
#1254=ADVANCED_FACE('',(#105),#28,.T.);
#1255=ADVANCED_FACE('',(#106),#1234,.T.);
#1256=ADVANCED_FACE('',(#107),#29,.T.);
#1257=ADVANCED_FACE('',(#108),#1235,.T.);
#1258=ADVANCED_FACE('',(#109),#1236,.T.);
#1259=ADVANCED_FACE('',(#110),#30,.T.);
#1260=ADVANCED_FACE('',(#111),#1237,.T.);
#1261=ADVANCED_FACE('',(#112),#1238,.T.);
#1262=ADVANCED_FACE('',(#113),#1239,.T.);
#1263=ADVANCED_FACE('',(#114),#1240,.T.);
#1264=ADVANCED_FACE('',(#115),#38,.T.);
#1265=ADVANCED_FACE('',(#116),#39,.T.);
#1266=ADVANCED_FACE('',(#117),#40,.T.);
#1267=ADVANCED_FACE('',(#118),#41,.T.);
#1268=ADVANCED_FACE('',(#119,#15,#16,#17,#18,#19,#20,#21,#22,#23,#24,#25),
#42,.T.);
#1269=ADVANCED_FACE('',(#120),#43,.T.);
#1270=ADVANCED_FACE('',(#121),#44,.T.);
#1271=ADVANCED_FACE('',(#122),#45,.T.);
#1272=ADVANCED_FACE('',(#123),#46,.T.);
#1273=ADVANCED_FACE('',(#124),#47,.T.);
#1274=ADVANCED_FACE('',(#125),#48,.T.);
#1275=ADVANCED_FACE('',(#126),#49,.T.);
#1276=ADVANCED_FACE('',(#127),#50,.T.);
#1277=ADVANCED_FACE('',(#128),#51,.T.);
#1278=ADVANCED_FACE('',(#129),#52,.T.);
#1279=ADVANCED_FACE('',(#130),#53,.T.);
#1280=ADVANCED_FACE('',(#131),#54,.T.);
#1281=ADVANCED_FACE('',(#132),#55,.T.);
#1282=ADVANCED_FACE('',(#133),#56,.T.);
#1283=ADVANCED_FACE('',(#134),#57,.T.);
#1284=ADVANCED_FACE('',(#135),#58,.T.);
#1285=ADVANCED_FACE('',(#136),#59,.T.);
#1286=ADVANCED_FACE('',(#137),#60,.T.);
#1287=ADVANCED_FACE('',(#138),#61,.T.);
#1288=ADVANCED_FACE('',(#139),#62,.T.);
#1289=ADVANCED_FACE('',(#140),#63,.T.);
#1290=ADVANCED_FACE('',(#141),#64,.T.);
#1291=ADVANCED_FACE('',(#142),#65,.T.);
#1292=ADVANCED_FACE('',(#143),#66,.T.);
#1293=ADVANCED_FACE('',(#144),#67,.T.);
#1294=ADVANCED_FACE('',(#145),#68,.T.);
#1295=ADVANCED_FACE('',(#146),#69,.T.);
#1296=ADVANCED_FACE('',(#147),#70,.T.);
#1297=ADVANCED_FACE('',(#148),#71,.T.);
#1298=ADVANCED_FACE('',(#149),#72,.T.);
#1299=ADVANCED_FACE('',(#150),#73,.T.);
#1300=ADVANCED_FACE('',(#151),#74,.T.);
#1301=ADVANCED_FACE('',(#152),#75,.T.);
#1302=ADVANCED_FACE('',(#153),#76,.T.);
#1303=ADVANCED_FACE('',(#154),#77,.T.);
#1304=ADVANCED_FACE('',(#155,#26),#78,.T.);
#1305=ADVANCED_FACE('',(#156),#79,.T.);
#1306=ADVANCED_FACE('',(#157),#80,.T.);
#1307=ADVANCED_FACE('',(#158),#81,.T.);
#1308=ADVANCED_FACE('',(#159),#82,.T.);
#1309=ADVANCED_FACE('',(#160),#83,.T.);
#1310=ADVANCED_FACE('',(#161),#84,.T.);
#1311=ADVANCED_FACE('',(#162),#85,.T.);
#1312=ADVANCED_FACE('',(#163),#86,.T.);
#1313=ADVANCED_FACE('',(#164),#87,.T.);
#1314=ADVANCED_FACE('',(#165),#88,.T.);
#1315=ADVANCED_FACE('',(#166),#89,.T.);
#1316=ADVANCED_FACE('',(#167),#90,.T.);
#1317=ADVANCED_FACE('',(#168),#91,.T.);
#1318=CLOSED_SHELL('',(#1241,#1242,#1243,#1244,#1245,#1246,#1247,#1248,
#1249,#1250,#1251,#1252,#1253,#1254,#1255,#1256,#1257,#1258,#1259,#1260,
#1261,#1262,#1263,#1264,#1265,#1266,#1267,#1268,#1269,#1270,#1271,#1272,
#1273,#1274,#1275,#1276,#1277,#1278,#1279,#1280,#1281,#1282,#1283,#1284,
#1285,#1286,#1287,#1288,#1289,#1290,#1291,#1292,#1293,#1294,#1295,#1296,
#1297,#1298,#1299,#1300,#1301,#1302,#1303,#1304,#1305,#1306,#1307,#1308,
#1309,#1310,#1311,#1312,#1313,#1314,#1315,#1316,#1317));
#1319=DERIVED_UNIT_ELEMENT(#1322,1.);
#1320=DERIVED_UNIT_ELEMENT(#2181,-3.);
#1321=DIMENSIONAL_EXPONENTS(0.,1.,0.,0.,0.,0.,0.);
#1322=(
CONVERSION_BASED_UNIT('gram',#1324)
MASS_UNIT()
NAMED_UNIT(#1321)
);
#1323=(
MASS_UNIT()
NAMED_UNIT(*)
SI_UNIT(.KILO.,.GRAM.)
);
#1324=MASS_MEASURE_WITH_UNIT(MASS_MEASURE(0.001),#1323);
#1325=DERIVED_UNIT((#1319,#1320));
#1326=MEASURE_REPRESENTATION_ITEM('density measure',
POSITIVE_RATIO_MEASURE(7.85),#1325);
#1327=PROPERTY_DEFINITION_REPRESENTATION(#1332,#1329);
#1328=PROPERTY_DEFINITION_REPRESENTATION(#1333,#1330);
#1329=REPRESENTATION('material name',(#1331),#2178);
#1330=REPRESENTATION('density',(#1326),#2178);
#1331=DESCRIPTIVE_REPRESENTATION_ITEM('Stahl S235JR','Stahl S235JR');
#1332=PROPERTY_DEFINITION('material property','material name',#2188);
#1333=PROPERTY_DEFINITION('material property','density of part',#2188);
#1334=DATE_TIME_ROLE('creation_date');
#1335=APPLIED_DATE_AND_TIME_ASSIGNMENT(#1336,#1334,(#2188));
#1336=DATE_AND_TIME(#1337,#1338);
#1337=CALENDAR_DATE(2025,22,12);
#1338=LOCAL_TIME(0,0,0.,#1339);
#1339=COORDINATED_UNIVERSAL_TIME_OFFSET(0,0,.BEHIND.);
#1340=AXIS2_PLACEMENT_3D('',#1807,#1446,#1447);
#1341=AXIS2_PLACEMENT_3D('',#1808,#1448,#1449);
#1342=AXIS2_PLACEMENT_3D('',#1811,#1450,#1451);
#1343=AXIS2_PLACEMENT_3D('',#1815,#1453,#1454);
#1344=AXIS2_PLACEMENT_3D('',#1818,#1456,#1457);
#1345=AXIS2_PLACEMENT_3D('',#1819,#1458,#1459);
#1346=AXIS2_PLACEMENT_3D('',#1825,#1463,#1464);
#1347=AXIS2_PLACEMENT_3D('',#1832,#1468,#1469);
#1348=AXIS2_PLACEMENT_3D('',#1833,#1470,#1471);
#1349=AXIS2_PLACEMENT_3D('',#1837,#1473,#1474);
#1350=AXIS2_PLACEMENT_3D('',#1841,#1477,#1478);
#1351=AXIS2_PLACEMENT_3D('',#1845,#1480,#1481);
#1352=AXIS2_PLACEMENT_3D('',#1848,#1483,#1484);
#1353=AXIS2_PLACEMENT_3D('',#1849,#1485,#1486);
#1354=AXIS2_PLACEMENT_3D('',#1853,#1488,#1489);
#1355=AXIS2_PLACEMENT_3D('',#1857,#1492,#1493);
#1356=AXIS2_PLACEMENT_3D('',#1861,#1496,#1497);
#1357=AXIS2_PLACEMENT_3D('',#1863,#1498,#1499);
#1358=AXIS2_PLACEMENT_3D('',#1866,#1501,#1502);
#1359=AXIS2_PLACEMENT_3D('',#1867,#1503,#1504);
#1360=AXIS2_PLACEMENT_3D('',#1873,#1508,#1509);
#1361=AXIS2_PLACEMENT_3D('',#1875,#1511,#1512);
#1362=AXIS2_PLACEMENT_3D('',#1876,#1513,#1514);
#1363=AXIS2_PLACEMENT_3D('',#1877,#1515,#1516);
#1364=AXIS2_PLACEMENT_3D('',#1878,#1517,#1518);
#1365=AXIS2_PLACEMENT_3D('',#1881,#1519,#1520);
#1366=AXIS2_PLACEMENT_3D('',#1883,#1521,#1522);
#1367=AXIS2_PLACEMENT_3D('',#1884,#1523,#1524);
#1368=AXIS2_PLACEMENT_3D('',#1885,#1525,#1526);
#1369=AXIS2_PLACEMENT_3D('',#1888,#1527,#1528);
#1370=AXIS2_PLACEMENT_3D('',#1891,#1531,#1532);
#1371=AXIS2_PLACEMENT_3D('',#1894,#1533,#1534);
#1372=AXIS2_PLACEMENT_3D('',#1896,#1535,#1536);
#1373=AXIS2_PLACEMENT_3D('',#1897,#1537,#1538);
#1374=AXIS2_PLACEMENT_3D('',#1898,#1539,#1540);
#1375=AXIS2_PLACEMENT_3D('',#1901,#1541,#1542);
#1376=AXIS2_PLACEMENT_3D('',#1904,#1545,#1546);
#1377=AXIS2_PLACEMENT_3D('',#1907,#1547,#1548);
#1378=AXIS2_PLACEMENT_3D('',#1909,#1549,#1550);
#1379=AXIS2_PLACEMENT_3D('',#1910,#1551,#1552);
#1380=AXIS2_PLACEMENT_3D('',#1911,#1553,#1554);
#1381=AXIS2_PLACEMENT_3D('',#1914,#1555,#1556);
#1382=AXIS2_PLACEMENT_3D('',#1917,#1559,#1560);
#1383=AXIS2_PLACEMENT_3D('',#1920,#1563,#1564);
#1384=AXIS2_PLACEMENT_3D('',#1923,#1565,#1566);
#1385=AXIS2_PLACEMENT_3D('',#1925,#1567,#1568);
#1386=AXIS2_PLACEMENT_3D('',#1926,#1569,#1570);
#1387=AXIS2_PLACEMENT_3D('',#1927,#1571,#1572);
#1388=AXIS2_PLACEMENT_3D('',#1930,#1573,#1574);
#1389=AXIS2_PLACEMENT_3D('',#1933,#1577,#1578);
#1390=AXIS2_PLACEMENT_3D('',#1936,#1581,#1582);
#1391=AXIS2_PLACEMENT_3D('',#1939,#1585,#1586);
#1392=AXIS2_PLACEMENT_3D('',#1942,#1589,#1590);
#1393=AXIS2_PLACEMENT_3D('',#1944,#1592,#1593);
#1394=AXIS2_PLACEMENT_3D('',#1946,#1595,#1596);
#1395=AXIS2_PLACEMENT_3D('',#1947,#1597,#1598);
#1396=AXIS2_PLACEMENT_3D('',#1949,#1600,#1601);
#1397=AXIS2_PLACEMENT_3D('',#2020,#1637,#1638);
#1398=AXIS2_PLACEMENT_3D('',#2026,#1642,#1643);
#1399=AXIS2_PLACEMENT_3D('',#2030,#1646,#1647);
#1400=AXIS2_PLACEMENT_3D('',#2034,#1650,#1651);
#1401=AXIS2_PLACEMENT_3D('',#2036,#1653,#1654);
#1402=AXIS2_PLACEMENT_3D('',#2042,#1658,#1659);
#1403=AXIS2_PLACEMENT_3D('',#2046,#1662,#1663);
#1404=AXIS2_PLACEMENT_3D('',#2048,#1665,#1666);
#1405=AXIS2_PLACEMENT_3D('',#2054,#1670,#1671);
#1406=AXIS2_PLACEMENT_3D('',#2058,#1674,#1675);
#1407=AXIS2_PLACEMENT_3D('',#2060,#1677,#1678);
#1408=AXIS2_PLACEMENT_3D('',#2066,#1682,#1683);
#1409=AXIS2_PLACEMENT_3D('',#2070,#1686,#1687);
#1410=AXIS2_PLACEMENT_3D('',#2072,#1689,#1690);
#1411=AXIS2_PLACEMENT_3D('',#2078,#1694,#1695);
#1412=AXIS2_PLACEMENT_3D('',#2082,#1698,#1699);
#1413=AXIS2_PLACEMENT_3D('',#2086,#1702,#1703);
#1414=AXIS2_PLACEMENT_3D('',#2088,#1705,#1706);
#1415=AXIS2_PLACEMENT_3D('',#2094,#1710,#1711);
#1416=AXIS2_PLACEMENT_3D('',#2098,#1714,#1715);
#1417=AXIS2_PLACEMENT_3D('',#2100,#1717,#1718);
#1418=AXIS2_PLACEMENT_3D('',#2106,#1722,#1723);
#1419=AXIS2_PLACEMENT_3D('',#2110,#1726,#1727);
#1420=AXIS2_PLACEMENT_3D('',#2112,#1729,#1730);
#1421=AXIS2_PLACEMENT_3D('',#2118,#1734,#1735);
#1422=AXIS2_PLACEMENT_3D('',#2122,#1738,#1739);
#1423=AXIS2_PLACEMENT_3D('',#2124,#1741,#1742);
#1424=AXIS2_PLACEMENT_3D('',#2130,#1746,#1747);
#1425=AXIS2_PLACEMENT_3D('',#2134,#1750,#1751);
#1426=AXIS2_PLACEMENT_3D('',#2136,#1753,#1754);
#1427=AXIS2_PLACEMENT_3D('',#2142,#1758,#1759);
#1428=AXIS2_PLACEMENT_3D('',#2146,#1762,#1763);
#1429=AXIS2_PLACEMENT_3D('',#2148,#1765,#1766);
#1430=AXIS2_PLACEMENT_3D('',#2154,#1770,#1771);
#1431=AXIS2_PLACEMENT_3D('',#2158,#1774,#1775);
#1432=AXIS2_PLACEMENT_3D('',#2160,#1777,#1778);
#1433=AXIS2_PLACEMENT_3D('',#2163,#1781,#1782);
#1434=AXIS2_PLACEMENT_3D('',#2164,#1783,#1784);
#1435=AXIS2_PLACEMENT_3D('',#2165,#1785,#1786);
#1436=AXIS2_PLACEMENT_3D('',#2166,#1787,#1788);
#1437=AXIS2_PLACEMENT_3D('',#2167,#1789,#1790);
#1438=AXIS2_PLACEMENT_3D('',#2168,#1791,#1792);
#1439=AXIS2_PLACEMENT_3D('',#2169,#1793,#1794);
#1440=AXIS2_PLACEMENT_3D('',#2170,#1795,#1796);
#1441=AXIS2_PLACEMENT_3D('',#2171,#1797,#1798);
#1442=AXIS2_PLACEMENT_3D('',#2172,#1799,#1800);
#1443=AXIS2_PLACEMENT_3D('',#2173,#1801,#1802);
#1444=AXIS2_PLACEMENT_3D('',#2174,#1803,#1804);
#1445=AXIS2_PLACEMENT_3D('',#2175,#1805,#1806);
#1446=DIRECTION('axis',(0.,0.,1.));
#1447=DIRECTION('refdir',(1.,0.,0.));
#1448=DIRECTION('center_axis',(0.,0.,1.));
#1449=DIRECTION('ref_axis',(-0.707106781186546,0.70710678118655,0.));
#1450=DIRECTION('center_axis',(6.31207026002932E-17,-0.5,-0.866025403784439));
#1451=DIRECTION('ref_axis',(-2.25347189810574E-16,0.866025403784439,-0.5));
#1452=DIRECTION('',(0.,0.,-1.));
#1453=DIRECTION('center_axis',(0.,0.,-1.));
#1454=DIRECTION('ref_axis',(-0.707106781186546,0.70710678118655,0.));
#1455=DIRECTION('',(0.,0.,1.));
#1456=DIRECTION('center_axis',(0.500000000000001,1.82003774528714E-16,-0.866025403784438));
#1457=DIRECTION('ref_axis',(-0.866025403784438,-4.50694379621148E-16,-0.500000000000001));
#1458=DIRECTION('center_axis',(-1.26241405200586E-16,1.,0.));
#1459=DIRECTION('ref_axis',(-1.,-1.26241405200586E-16,0.));
#1460=DIRECTION('',(-1.,-1.26241405200586E-16,0.));
#1461=DIRECTION('',(0.,0.,1.));
#1462=DIRECTION('',(1.,1.26241405200586E-16,0.));
#1463=DIRECTION('center_axis',(-6.31207026002932E-17,0.5,0.866025403784439));
#1464=DIRECTION('ref_axis',(1.,0.,7.28855092754351E-17));
#1465=DIRECTION('',(-0.654653670707981,0.654653670707975,-0.377964473009225));
#1466=DIRECTION('',(1.,1.26241405200586E-16,0.));
#1467=DIRECTION('',(0.654653670707982,0.654653670707973,-0.377964473009225));
#1468=DIRECTION('center_axis',(6.31207026002932E-17,-0.5,-0.866025403784439));
#1469=DIRECTION('ref_axis',(0.,0.866025403784439,-0.5));
#1470=DIRECTION('center_axis',(-0.500000000000001,-1.82003774528714E-16,
0.866025403784438));
#1471=DIRECTION('ref_axis',(0.866025403784438,0.,0.500000000000001));
#1472=DIRECTION('',(3.64007549057428E-16,-1.,0.));
#1473=DIRECTION('center_axis',(0.500000000000001,1.82003774528714E-16,-0.866025403784438));
#1474=DIRECTION('ref_axis',(-0.866025403784438,-3.00462919747432E-16,-0.500000000000001));
#1475=DIRECTION('',(-0.654653670707976,-0.654653670707978,-0.377964473009227));
#1476=DIRECTION('',(-3.64007549057428E-16,1.,0.));
#1477=DIRECTION('center_axis',(0.,0.,1.));
#1478=DIRECTION('ref_axis',(-0.707106781186547,-0.707106781186548,0.));
#1479=DIRECTION('',(0.,0.,-1.));
#1480=DIRECTION('center_axis',(0.,0.,-1.));
#1481=DIRECTION('ref_axis',(-0.707106781186547,-0.707106781186548,0.));
#1482=DIRECTION('',(0.,0.,1.));
#1483=DIRECTION('center_axis',(0.,0.5,-0.866025403784439));
#1484=DIRECTION('ref_axis',(0.,-0.866025403784439,-0.5));
#1485=DIRECTION('center_axis',(0.,-0.5,0.866025403784439));
#1486=DIRECTION('ref_axis',(1.,0.,0.));
#1487=DIRECTION('',(1.,0.,0.));
#1488=DIRECTION('center_axis',(0.,0.5,-0.866025403784439));
#1489=DIRECTION('ref_axis',(0.,-0.866025403784439,-0.5));
#1490=DIRECTION('',(0.654653670707983,-0.654653670707973,-0.377964473009225));
#1491=DIRECTION('',(-1.,0.,0.));
#1492=DIRECTION('center_axis',(0.,-1.,0.));
#1493=DIRECTION('ref_axis',(1.,0.,0.));
#1494=DIRECTION('',(-1.,0.,0.));
#1495=DIRECTION('',(0.,0.,-1.));
#1496=DIRECTION('center_axis',(0.,0.,1.));
#1497=DIRECTION('ref_axis',(0.70710678118654,0.707106781186555,0.));
#1498=DIRECTION('center_axis',(-0.5,0.,-0.866025403784439));
#1499=DIRECTION('ref_axis',(0.866025403784439,-1.50231459873716E-16,-0.5));
#1500=DIRECTION('',(0.,0.,-1.));
#1501=DIRECTION('center_axis',(0.,0.,-1.));
#1502=DIRECTION('ref_axis',(0.70710678118654,0.707106781186555,0.));
#1503=DIRECTION('center_axis',(1.,0.,0.));
#1504=DIRECTION('ref_axis',(0.,1.,0.));
#1505=DIRECTION('',(0.,1.,0.));
#1506=DIRECTION('',(0.,0.,1.));
#1507=DIRECTION('',(0.,-1.,0.));
#1508=DIRECTION('center_axis',(0.5,0.,0.866025403784439));
#1509=DIRECTION('ref_axis',(0.866025403784439,0.,-0.5));
#1510=DIRECTION('',(0.,-1.,0.));
#1511=DIRECTION('center_axis',(-0.5,0.,-0.866025403784439));
#1512=DIRECTION('ref_axis',(0.866025403784439,0.,-0.5));
#1513=DIRECTION('center_axis',(0.,0.,1.));
#1514=DIRECTION('ref_axis',(0.70710678118654,-0.707106781186555,0.));
#1515=DIRECTION('center_axis',(0.,0.,-1.));
#1516=DIRECTION('ref_axis',(0.70710678118654,-0.707106781186555,0.));
#1517=DIRECTION('center_axis',(-0.816496580927728,-0.40824829046386,0.408248290463862));
#1518=DIRECTION('ref_axis',(-0.577350269189624,0.57735026918963,-0.577350269189624));
#1519=DIRECTION('center_axis',(0.,1.,0.));
#1520=DIRECTION('ref_axis',(-1.,0.,0.));
#1521=DIRECTION('center_axis',(0.,0.,-1.));
#1522=DIRECTION('ref_axis',(-1.73472347597681E-16,1.,0.));
#1523=DIRECTION('center_axis',(-1.,-1.11022302462515E-14,0.));
#1524=DIRECTION('ref_axis',(0.,0.,-1.));
#1525=DIRECTION('center_axis',(0.,0.,-1.));
#1526=DIRECTION('ref_axis',(-0.707106781186547,0.707106781186548,0.));
#1527=DIRECTION('center_axis',(0.,0.,-1.));
#1528=DIRECTION('ref_axis',(-0.707106781186547,0.707106781186548,0.));
#1529=DIRECTION('',(0.,0.,-1.));
#1530=DIRECTION('',(0.,0.,1.));
#1531=DIRECTION('center_axis',(-0.816496580927733,0.408248290463858,-0.408248290463855));
#1532=DIRECTION('ref_axis',(0.57735026918963,0.577350269189622,-0.577350269189625));
#1533=DIRECTION('center_axis',(1.,0.,0.));
#1534=DIRECTION('ref_axis',(0.,1.,0.));
#1535=DIRECTION('center_axis',(0.,0.,-1.));
#1536=DIRECTION('ref_axis',(1.,0.,0.));
#1537=DIRECTION('center_axis',(0.,1.,0.));
#1538=DIRECTION('ref_axis',(0.,0.,-1.));
#1539=DIRECTION('center_axis',(0.,0.,-1.));
#1540=DIRECTION('ref_axis',(0.70710678118654,0.707106781186555,0.));
#1541=DIRECTION('center_axis',(0.,0.,-1.));
#1542=DIRECTION('ref_axis',(0.70710678118654,0.707106781186555,0.));
#1543=DIRECTION('',(0.,0.,-1.));
#1544=DIRECTION('',(0.,0.,1.));
#1545=DIRECTION('center_axis',(0.408248290463862,-0.816496580927723,0.40824829046387));
#1546=DIRECTION('ref_axis',(-0.577350269189618,-0.57735026918963,-0.57735026918963));
#1547=DIRECTION('center_axis',(-1.,0.,-4.44089209850062E-14));
#1548=DIRECTION('ref_axis',(0.,-1.,0.));
#1549=DIRECTION('center_axis',(0.,0.,-1.));
#1550=DIRECTION('ref_axis',(-1.,-3.46944695195361E-16,0.));
#1551=DIRECTION('center_axis',(1.38777878078144E-15,-1.,0.));
#1552=DIRECTION('ref_axis',(0.,0.,-1.));
#1553=DIRECTION('center_axis',(0.,0.,-1.));
#1554=DIRECTION('ref_axis',(-0.707106781186548,-0.707106781186547,0.));
#1555=DIRECTION('center_axis',(0.,0.,-1.));
#1556=DIRECTION('ref_axis',(-0.707106781186548,-0.707106781186547,0.));
#1557=DIRECTION('',(0.,0.,-1.));
#1558=DIRECTION('',(0.,0.,1.));
#1559=DIRECTION('center_axis',(-3.33066907387547E-16,1.,0.));
#1560=DIRECTION('ref_axis',(-0.707106781186549,0.,-0.707106781186546));
#1561=DIRECTION('',(3.33066907387547E-16,-1.,0.));
#1562=DIRECTION('',(-3.33066907387547E-16,1.,0.));
#1563=DIRECTION('center_axis',(-0.816496580927727,-0.408248290463862,-0.408248290463862));
#1564=DIRECTION('ref_axis',(0.577350269189621,-0.577350269189629,-0.577350269189628));
#1565=DIRECTION('center_axis',(0.,-1.,0.));
#1566=DIRECTION('ref_axis',(1.,0.,0.));
#1567=DIRECTION('center_axis',(0.,0.,-1.));
#1568=DIRECTION('ref_axis',(0.,-1.,0.));
#1569=DIRECTION('center_axis',(1.,0.,0.));
#1570=DIRECTION('ref_axis',(0.,0.,-1.));
#1571=DIRECTION('center_axis',(0.,0.,-1.));
#1572=DIRECTION('ref_axis',(0.70710678118654,-0.707106781186555,0.));
#1573=DIRECTION('center_axis',(0.,0.,-1.));
#1574=DIRECTION('ref_axis',(0.70710678118654,-0.707106781186555,0.));
#1575=DIRECTION('',(0.,0.,-1.));
#1576=DIRECTION('',(0.,0.,1.));
#1577=DIRECTION('center_axis',(-1.,0.,0.));
#1578=DIRECTION('ref_axis',(0.,-0.707106781186548,-0.707106781186547));
#1579=DIRECTION('',(1.,0.,0.));
#1580=DIRECTION('',(-1.,0.,0.));
#1581=DIRECTION('center_axis',(0.,-1.,0.));
#1582=DIRECTION('ref_axis',(0.70710678118654,0.,-0.707106781186555));
#1583=DIRECTION('',(0.,1.,0.));
#1584=DIRECTION('',(0.,-1.,0.));
#1585=DIRECTION('center_axis',(1.,1.2490009027033E-16,0.));
#1586=DIRECTION('ref_axis',(0.,0.707106781186552,-0.707106781186543));
#1587=DIRECTION('',(-1.,-1.2490009027033E-16,0.));
#1588=DIRECTION('',(1.,1.2490009027033E-16,0.));
#1589=DIRECTION('center_axis',(-1.,-3.33066907387547E-16,0.));
#1590=DIRECTION('ref_axis',(-3.33066907387547E-16,1.,0.));
#1591=DIRECTION('',(3.33066907387547E-16,-1.,0.));
#1592=DIRECTION('center_axis',(0.,-1.,0.));
#1593=DIRECTION('ref_axis',(-1.,0.,0.));
#1594=DIRECTION('',(1.,0.,0.));
#1595=DIRECTION('center_axis',(0.,0.,-1.));
#1596=DIRECTION('ref_axis',(-1.,0.,0.));
#1597=DIRECTION('center_axis',(-1.,-3.64007549057428E-16,0.));
#1598=DIRECTION('ref_axis',(3.64007549057428E-16,-1.,0.));
#1599=DIRECTION('',(-3.64007549057428E-16,1.,0.));
#1600=DIRECTION('center_axis',(0.,0.,1.));
#1601=DIRECTION('ref_axis',(1.,0.,0.));
#1602=DIRECTION('',(1.,1.2753040487079E-16,0.));
#1603=DIRECTION('',(0.,-1.,0.));
#1604=DIRECTION('',(-0.707106781186548,-0.707106781186547,0.));
#1605=DIRECTION('',(-0.707106781186548,0.707106781186547,0.));
#1606=DIRECTION('',(-0.707106781186547,-0.707106781186548,0.));
#1607=DIRECTION('',(-0.707106781186548,0.707106781186547,0.));
#1608=DIRECTION('',(1.,1.2753040487079E-16,0.));
#1609=DIRECTION('',(-0.707106781186548,-0.707106781186547,0.));
#1610=DIRECTION('',(-0.707106781186547,0.707106781186548,0.));
#1611=DIRECTION('',(1.,1.2753040487079E-16,0.));
#1612=DIRECTION('',(-0.707106781186548,-0.707106781186547,0.));
#1613=DIRECTION('',(-0.70710678118655,0.707106781186545,0.));
#1614=DIRECTION('',(1.,1.2753040487079E-16,0.));
#1615=DIRECTION('',(-0.707106781186548,-0.707106781186547,0.));
#1616=DIRECTION('',(-0.707106781186546,0.707106781186549,0.));
#1617=DIRECTION('',(-4.81983049612718E-16,1.,0.));
#1618=DIRECTION('',(1.,1.2753040487079E-16,0.));
#1619=DIRECTION('',(0.70710678118655,-0.707106781186545,0.));
#1620=DIRECTION('',(-1.,0.,0.));
#1621=DIRECTION('',(-4.81983049612718E-16,1.,0.));
#1622=DIRECTION('',(0.707106781186545,0.70710678118655,0.));
#1623=DIRECTION('',(0.707106781186546,-0.707106781186548,0.));
#1624=DIRECTION('',(-1.,0.,0.));
#1625=DIRECTION('',(0.707106781186547,0.707106781186548,0.));
#1626=DIRECTION('',(0.70710678118655,-0.707106781186545,0.));
#1627=DIRECTION('',(-1.,0.,0.));
#1628=DIRECTION('',(0.707106781186546,0.707106781186549,0.));
#1629=DIRECTION('',(0.707106781186548,-0.707106781186547,0.));
#1630=DIRECTION('',(-1.,0.,0.));
#1631=DIRECTION('',(0.707106781186548,0.707106781186547,0.));
#1632=DIRECTION('',(0.707106781186547,-0.707106781186548,0.));
#1633=DIRECTION('',(-1.,0.,0.));
#1634=DIRECTION('',(0.707106781186547,0.707106781186548,0.));
#1635=DIRECTION('',(0.,-1.,0.));
#1636=DIRECTION('',(-1.,0.,0.));
#1637=DIRECTION('center_axis',(0.707106781186547,0.707106781186548,0.));
#1638=DIRECTION('ref_axis',(-0.707106781186548,0.707106781186547,0.));
#1639=DIRECTION('',(0.707106781186548,-0.707106781186547,0.));
#1640=DIRECTION('',(0.,0.,1.));
#1641=DIRECTION('',(0.,0.,1.));
#1642=DIRECTION('center_axis',(-0.707106781186547,0.707106781186548,0.));
#1643=DIRECTION('ref_axis',(-0.707106781186548,-0.707106781186547,0.));
#1644=DIRECTION('',(0.707106781186548,0.707106781186547,0.));
#1645=DIRECTION('',(0.,0.,1.));
#1646=DIRECTION('center_axis',(-1.,0.,0.));
#1647=DIRECTION('ref_axis',(0.,-1.,0.));
#1648=DIRECTION('',(0.,1.,0.));
#1649=DIRECTION('',(0.,0.,1.));
#1650=DIRECTION('center_axis',(1.2753040487079E-16,-1.,0.));
#1651=DIRECTION('ref_axis',(1.,1.2753040487079E-16,0.));
#1652=DIRECTION('',(-1.,-1.2753040487079E-16,0.));
#1653=DIRECTION('center_axis',(1.2753040487079E-16,-1.,0.));
#1654=DIRECTION('ref_axis',(1.,1.2753040487079E-16,0.));
#1655=DIRECTION('',(-1.,-1.2753040487079E-16,0.));
#1656=DIRECTION('',(0.,0.,1.));
#1657=DIRECTION('',(0.,0.,1.));
#1658=DIRECTION('center_axis',(0.707106781186547,0.707106781186548,0.));
#1659=DIRECTION('ref_axis',(-0.707106781186548,0.707106781186547,0.));
#1660=DIRECTION('',(0.707106781186548,-0.707106781186547,0.));
#1661=DIRECTION('',(0.,0.,1.));
#1662=DIRECTION('center_axis',(-0.707106781186548,0.707106781186547,0.));
#1663=DIRECTION('ref_axis',(-0.707106781186547,-0.707106781186548,0.));
#1664=DIRECTION('',(0.707106781186547,0.707106781186548,0.));
#1665=DIRECTION('center_axis',(1.2753040487079E-16,-1.,0.));
#1666=DIRECTION('ref_axis',(1.,1.2753040487079E-16,0.));
#1667=DIRECTION('',(-1.,-1.2753040487079E-16,0.));
#1668=DIRECTION('',(0.,0.,1.));
#1669=DIRECTION('',(0.,0.,1.));
#1670=DIRECTION('center_axis',(0.707106781186548,0.707106781186547,0.));
#1671=DIRECTION('ref_axis',(-0.707106781186547,0.707106781186548,0.));
#1672=DIRECTION('',(0.707106781186547,-0.707106781186548,0.));
#1673=DIRECTION('',(0.,0.,1.));
#1674=DIRECTION('center_axis',(-0.707106781186547,0.707106781186548,0.));
#1675=DIRECTION('ref_axis',(-0.707106781186548,-0.707106781186547,0.));
#1676=DIRECTION('',(0.707106781186548,0.707106781186547,0.));
#1677=DIRECTION('center_axis',(1.2753040487079E-16,-1.,0.));
#1678=DIRECTION('ref_axis',(1.,1.2753040487079E-16,0.));
#1679=DIRECTION('',(-1.,-1.2753040487079E-16,0.));
#1680=DIRECTION('',(0.,0.,1.));
#1681=DIRECTION('',(0.,0.,1.));
#1682=DIRECTION('center_axis',(0.707106781186545,0.70710678118655,0.));
#1683=DIRECTION('ref_axis',(-0.70710678118655,0.707106781186545,0.));
#1684=DIRECTION('',(0.70710678118655,-0.707106781186545,0.));
#1685=DIRECTION('',(0.,0.,1.));
#1686=DIRECTION('center_axis',(-0.707106781186547,0.707106781186548,0.));
#1687=DIRECTION('ref_axis',(-0.707106781186548,-0.707106781186547,0.));
#1688=DIRECTION('',(0.707106781186548,0.707106781186547,0.));
#1689=DIRECTION('center_axis',(1.2753040487079E-16,-1.,0.));
#1690=DIRECTION('ref_axis',(1.,1.2753040487079E-16,0.));
#1691=DIRECTION('',(-1.,-1.2753040487079E-16,0.));
#1692=DIRECTION('',(0.,0.,1.));
#1693=DIRECTION('',(0.,0.,1.));
#1694=DIRECTION('center_axis',(1.,4.81983049612718E-16,0.));
#1695=DIRECTION('ref_axis',(-4.81983049612718E-16,1.,0.));
#1696=DIRECTION('',(4.81983049612718E-16,-1.,0.));
#1697=DIRECTION('',(0.,0.,1.));
#1698=DIRECTION('center_axis',(0.707106781186549,0.707106781186546,0.));
#1699=DIRECTION('ref_axis',(-0.707106781186546,0.707106781186549,0.));
#1700=DIRECTION('',(0.707106781186546,-0.707106781186549,0.));
#1701=DIRECTION('',(0.,0.,1.));
#1702=DIRECTION('center_axis',(-0.707106781186547,0.707106781186548,0.));
#1703=DIRECTION('ref_axis',(-0.707106781186548,-0.707106781186547,0.));
#1704=DIRECTION('',(0.707106781186548,0.707106781186547,0.));
#1705=DIRECTION('center_axis',(1.,4.81983049612718E-16,0.));
#1706=DIRECTION('ref_axis',(-4.81983049612718E-16,1.,0.));
#1707=DIRECTION('',(4.81983049612718E-16,-1.,0.));
#1708=DIRECTION('',(0.,0.,1.));
#1709=DIRECTION('',(0.,0.,1.));
#1710=DIRECTION('center_axis',(0.,1.,0.));
#1711=DIRECTION('ref_axis',(-1.,0.,0.));
#1712=DIRECTION('',(1.,0.,0.));
#1713=DIRECTION('',(0.,0.,1.));
#1714=DIRECTION('center_axis',(-0.707106781186545,-0.70710678118655,0.));
#1715=DIRECTION('ref_axis',(0.70710678118655,-0.707106781186545,0.));
#1716=DIRECTION('',(-0.70710678118655,0.707106781186545,0.));
#1717=DIRECTION('center_axis',(0.,1.,0.));
#1718=DIRECTION('ref_axis',(-1.,0.,0.));
#1719=DIRECTION('',(1.,0.,0.));
#1720=DIRECTION('',(0.,0.,1.));
#1721=DIRECTION('',(0.,0.,1.));
#1722=DIRECTION('center_axis',(-0.707106781186549,-0.707106781186547,0.));
#1723=DIRECTION('ref_axis',(0.707106781186546,-0.707106781186548,0.));
#1724=DIRECTION('',(-0.707106781186546,0.707106781186548,0.));
#1725=DIRECTION('',(0.,0.,1.));
#1726=DIRECTION('center_axis',(0.70710678118655,-0.707106781186545,0.));
#1727=DIRECTION('ref_axis',(0.707106781186545,0.70710678118655,0.));
#1728=DIRECTION('',(-0.707106781186545,-0.70710678118655,0.));
#1729=DIRECTION('center_axis',(0.,1.,0.));
#1730=DIRECTION('ref_axis',(-1.,0.,0.));
#1731=DIRECTION('',(1.,0.,0.));
#1732=DIRECTION('',(0.,0.,1.));
#1733=DIRECTION('',(0.,0.,1.));
#1734=DIRECTION('center_axis',(-0.707106781186546,-0.70710678118655,0.));
#1735=DIRECTION('ref_axis',(0.70710678118655,-0.707106781186545,0.));
#1736=DIRECTION('',(-0.70710678118655,0.707106781186545,0.));
#1737=DIRECTION('',(0.,0.,1.));
#1738=DIRECTION('center_axis',(0.707106781186548,-0.707106781186547,0.));
#1739=DIRECTION('ref_axis',(0.707106781186547,0.707106781186548,0.));
#1740=DIRECTION('',(-0.707106781186547,-0.707106781186548,0.));
#1741=DIRECTION('center_axis',(0.,1.,0.));
#1742=DIRECTION('ref_axis',(-1.,0.,0.));
#1743=DIRECTION('',(1.,0.,0.));
#1744=DIRECTION('',(0.,0.,1.));
#1745=DIRECTION('',(0.,0.,1.));
#1746=DIRECTION('center_axis',(-0.707106781186547,-0.707106781186548,0.));
#1747=DIRECTION('ref_axis',(0.707106781186548,-0.707106781186547,0.));
#1748=DIRECTION('',(-0.707106781186548,0.707106781186547,0.));
#1749=DIRECTION('',(0.,0.,1.));
#1750=DIRECTION('center_axis',(0.707106781186549,-0.707106781186546,0.));
#1751=DIRECTION('ref_axis',(0.707106781186546,0.707106781186549,0.));
#1752=DIRECTION('',(-0.707106781186546,-0.707106781186549,0.));
#1753=DIRECTION('center_axis',(0.,1.,0.));
#1754=DIRECTION('ref_axis',(-1.,0.,0.));
#1755=DIRECTION('',(1.,0.,0.));
#1756=DIRECTION('',(0.,0.,1.));
#1757=DIRECTION('',(0.,0.,1.));
#1758=DIRECTION('center_axis',(-0.707106781186548,-0.707106781186547,0.));
#1759=DIRECTION('ref_axis',(0.707106781186547,-0.707106781186548,0.));
#1760=DIRECTION('',(-0.707106781186547,0.707106781186548,0.));
#1761=DIRECTION('',(0.,0.,1.));
#1762=DIRECTION('center_axis',(0.707106781186547,-0.707106781186548,0.));
#1763=DIRECTION('ref_axis',(0.707106781186548,0.707106781186547,0.));
#1764=DIRECTION('',(-0.707106781186548,-0.707106781186547,0.));
#1765=DIRECTION('center_axis',(0.,1.,0.));
#1766=DIRECTION('ref_axis',(-1.,0.,0.));
#1767=DIRECTION('',(1.,0.,0.));
#1768=DIRECTION('',(0.,0.,1.));
#1769=DIRECTION('',(0.,0.,1.));
#1770=DIRECTION('center_axis',(-1.,0.,0.));
#1771=DIRECTION('ref_axis',(0.,-1.,0.));
#1772=DIRECTION('',(0.,1.,0.));
#1773=DIRECTION('',(0.,0.,1.));
#1774=DIRECTION('center_axis',(0.707106781186548,-0.707106781186547,0.));
#1775=DIRECTION('ref_axis',(0.707106781186547,0.707106781186548,0.));
#1776=DIRECTION('',(-0.707106781186547,-0.707106781186548,0.));
#1777=DIRECTION('center_axis',(0.,0.,1.));
#1778=DIRECTION('ref_axis',(1.,0.,0.));
#1779=DIRECTION('',(0.,1.,0.));
#1780=DIRECTION('',(-1.,-1.2490009027033E-16,0.));
#1781=DIRECTION('center_axis',(0.,0.,1.));
#1782=DIRECTION('ref_axis',(1.,0.,0.));
#1783=DIRECTION('center_axis',(0.,0.,1.));
#1784=DIRECTION('ref_axis',(1.,0.,0.));
#1785=DIRECTION('center_axis',(0.,0.,1.));
#1786=DIRECTION('ref_axis',(1.,0.,0.));
#1787=DIRECTION('center_axis',(0.,0.,1.));
#1788=DIRECTION('ref_axis',(1.,0.,0.));
#1789=DIRECTION('center_axis',(0.,0.,1.));
#1790=DIRECTION('ref_axis',(1.,0.,0.));
#1791=DIRECTION('center_axis',(0.,0.,1.));
#1792=DIRECTION('ref_axis',(1.,0.,0.));
#1793=DIRECTION('center_axis',(0.,0.,1.));
#1794=DIRECTION('ref_axis',(1.,0.,0.));
#1795=DIRECTION('center_axis',(0.,0.,1.));
#1796=DIRECTION('ref_axis',(1.,0.,0.));
#1797=DIRECTION('center_axis',(0.,0.,1.));
#1798=DIRECTION('ref_axis',(1.,0.,0.));
#1799=DIRECTION('center_axis',(0.,0.,1.));
#1800=DIRECTION('ref_axis',(1.,0.,0.));
#1801=DIRECTION('center_axis',(-1.2490009027033E-16,1.,0.));
#1802=DIRECTION('ref_axis',(1.,1.2490009027033E-16,0.));
#1803=DIRECTION('center_axis',(1.,0.,0.));
#1804=DIRECTION('ref_axis',(0.,-1.,0.));
#1805=DIRECTION('center_axis',(0.,0.,1.));
#1806=DIRECTION('ref_axis',(1.,0.,0.));
#1807=CARTESIAN_POINT('',(0.,0.,0.));
#1808=CARTESIAN_POINT('Origin',(1.24999999999999,18.75,0.));
#1809=CARTESIAN_POINT('',(0.967157287525372,19.0328427124746,0.678965656895491));
#1810=CARTESIAN_POINT('',(1.25,19.15,0.611324865405187));
#1811=CARTESIAN_POINT('Origin',(1.24999999999999,18.75,0.842264973081037));
#1812=CARTESIAN_POINT('',(1.25,19.15,0.));
#1813=CARTESIAN_POINT('',(1.24999999999999,19.15,0.));
#1814=CARTESIAN_POINT('',(0.849999999999989,18.75,0.));
#1815=CARTESIAN_POINT('Origin',(1.24999999999999,18.75,0.));
#1816=CARTESIAN_POINT('',(0.849999999999993,18.75,0.611324865405187));
#1817=CARTESIAN_POINT('',(0.849999999999993,18.75,0.));
#1818=CARTESIAN_POINT('Origin',(1.24999999999999,18.75,0.842264973081037));
#1819=CARTESIAN_POINT('Origin',(159.15,19.15,0.));
#1820=CARTESIAN_POINT('',(158.75,19.15,0.611324865405187));
#1821=CARTESIAN_POINT('',(119.575,19.15,0.611324865405187));
#1822=CARTESIAN_POINT('',(158.75,19.15,0.));
#1823=CARTESIAN_POINT('',(158.75,19.15,0.));
#1824=CARTESIAN_POINT('',(119.575,19.15,0.));
#1825=CARTESIAN_POINT('Origin',(119.575,18.9,0.755662432702593));
#1826=CARTESIAN_POINT('',(1.35,18.65,0.9));
#1827=CARTESIAN_POINT('',(1.35,18.65,0.9));
#1828=CARTESIAN_POINT('',(158.65,18.65,0.9));
#1829=CARTESIAN_POINT('',(119.575,18.65,0.9));
#1830=CARTESIAN_POINT('',(159.032842712475,19.0328427124746,0.678965656895485));
#1831=CARTESIAN_POINT('',(158.65,18.65,0.9));
#1832=CARTESIAN_POINT('Origin',(158.75,18.75,0.842264973081038));
#1833=CARTESIAN_POINT('Origin',(1.09999999999999,14.575,0.755662432702594));
#1834=CARTESIAN_POINT('',(0.85,1.25,0.611324865405187));
#1835=CARTESIAN_POINT('',(0.849999999999995,14.575,0.611324865405187));
#1836=CARTESIAN_POINT('',(0.967157287525381,0.967157287525381,0.678965656895493));
#1837=CARTESIAN_POINT('Origin',(1.25,1.25,0.842264973081038));
#1838=CARTESIAN_POINT('',(1.35,1.35,0.9));
#1839=CARTESIAN_POINT('',(1.35,1.35,0.9));
#1840=CARTESIAN_POINT('',(1.34999999999999,14.575,0.9));
#1841=CARTESIAN_POINT('Origin',(1.25,1.25,0.));
#1842=CARTESIAN_POINT('',(0.849999999999996,1.25,0.));
#1843=CARTESIAN_POINT('',(0.85,1.25,0.));
#1844=CARTESIAN_POINT('',(1.25,0.85,0.));
#1845=CARTESIAN_POINT('Origin',(1.25,1.25,0.));
#1846=CARTESIAN_POINT('',(1.25,0.85,0.611324865405187));
#1847=CARTESIAN_POINT('',(1.25,0.85,0.));
#1848=CARTESIAN_POINT('Origin',(1.25,1.25,0.842264973081038));
#1849=CARTESIAN_POINT('Origin',(40.425,1.1,0.755662432702594));
#1850=CARTESIAN_POINT('',(158.75,0.85,0.611324865405187));
#1851=CARTESIAN_POINT('',(40.425,0.85,0.611324865405187));
#1852=CARTESIAN_POINT('',(159.032842712475,0.967157287525377,0.678965656895486));
#1853=CARTESIAN_POINT('Origin',(158.75,1.25,0.842264973081038));
#1854=CARTESIAN_POINT('',(158.65,1.35,0.9));
#1855=CARTESIAN_POINT('',(158.65,1.35,0.9));
#1856=CARTESIAN_POINT('',(40.425,1.35,0.9));
#1857=CARTESIAN_POINT('Origin',(0.850000000000002,0.85,0.));
#1858=CARTESIAN_POINT('',(158.75,0.85,0.));
#1859=CARTESIAN_POINT('',(40.425,0.85,0.));
#1860=CARTESIAN_POINT('',(158.75,0.85,0.));
#1861=CARTESIAN_POINT('Origin',(158.75,18.75,0.));
#1862=CARTESIAN_POINT('',(159.15,18.75,0.611324865405183));
#1863=CARTESIAN_POINT('Origin',(158.75,18.75,0.842264973081028));
#1864=CARTESIAN_POINT('',(159.15,18.75,0.));
#1865=CARTESIAN_POINT('',(159.15,18.75,0.));
#1866=CARTESIAN_POINT('Origin',(158.75,18.75,0.));
#1867=CARTESIAN_POINT('Origin',(159.15,0.85,0.));
#1868=CARTESIAN_POINT('',(159.15,1.25,0.611324865405183));
#1869=CARTESIAN_POINT('',(159.15,5.425,0.611324865405183));
#1870=CARTESIAN_POINT('',(159.15,1.25,0.));
#1871=CARTESIAN_POINT('',(159.15,1.25,0.));
#1872=CARTESIAN_POINT('',(159.15,5.425,0.));
#1873=CARTESIAN_POINT('Origin',(158.9,5.425,0.755662432702592));
#1874=CARTESIAN_POINT('',(158.65,5.425,0.9));
#1875=CARTESIAN_POINT('Origin',(158.75,1.25,0.842264973081028));
#1876=CARTESIAN_POINT('Origin',(158.75,1.25,0.));
#1877=CARTESIAN_POINT('Origin',(158.75,1.25,0.));
#1878=CARTESIAN_POINT('Origin',(0.399999999999994,19.6,-0.2));
#1879=CARTESIAN_POINT('',(-6.52256026967279E-15,19.6,-0.2));
#1880=CARTESIAN_POINT('',(0.399999999999995,19.6,-0.6));
#1881=CARTESIAN_POINT('Origin',(0.399999999999995,19.6,-0.2));
#1882=CARTESIAN_POINT('',(0.399999999999991,20.,-0.2));
#1883=CARTESIAN_POINT('Origin',(0.399999999999994,19.6,-0.2));
#1884=CARTESIAN_POINT('Origin',(0.399999999999996,19.6,-0.2));
#1885=CARTESIAN_POINT('Origin',(0.399999999999994,19.6,0.));
#1886=CARTESIAN_POINT('',(-6.52811138479592E-15,19.6,0.));
#1887=CARTESIAN_POINT('',(0.399999999999991,20.,0.));
#1888=CARTESIAN_POINT('Origin',(0.399999999999994,19.6,0.));
#1889=CARTESIAN_POINT('',(0.399999999999993,20.,0.));
#1890=CARTESIAN_POINT('',(-6.52256026967279E-15,19.6,0.));
#1891=CARTESIAN_POINT('Origin',(159.6,19.6,-0.2));
#1892=CARTESIAN_POINT('',(159.6,20.,-0.2));
#1893=CARTESIAN_POINT('',(159.6,19.6,-0.6));
#1894=CARTESIAN_POINT('Origin',(159.6,19.6,-0.2));
#1895=CARTESIAN_POINT('',(160.,19.6,-0.2));
#1896=CARTESIAN_POINT('Origin',(159.6,19.6,-0.2));
#1897=CARTESIAN_POINT('Origin',(159.6,19.6,-0.2));
#1898=CARTESIAN_POINT('Origin',(159.6,19.6,0.));
#1899=CARTESIAN_POINT('',(159.6,20.,0.));
#1900=CARTESIAN_POINT('',(160.,19.6,0.));
#1901=CARTESIAN_POINT('Origin',(159.6,19.6,0.));
#1902=CARTESIAN_POINT('',(160.,19.6,0.));
#1903=CARTESIAN_POINT('',(159.6,20.,0.));
#1904=CARTESIAN_POINT('Origin',(0.4,0.4,-0.2));
#1905=CARTESIAN_POINT('',(0.4,0.,-0.2));
#1906=CARTESIAN_POINT('',(0.400000000000009,0.4,-0.6));
#1907=CARTESIAN_POINT('Origin',(0.399999999999991,0.4,-0.2));
#1908=CARTESIAN_POINT('',(-1.33226762955021E-16,0.4,-0.2));
#1909=CARTESIAN_POINT('Origin',(0.4,0.4,-0.2));
#1910=CARTESIAN_POINT('Origin',(0.400000000000002,0.4,-0.2));
#1911=CARTESIAN_POINT('Origin',(0.4,0.4,0.));
#1912=CARTESIAN_POINT('',(0.4,0.,0.));
#1913=CARTESIAN_POINT('',(-1.33226762955018E-16,0.4,0.));
#1914=CARTESIAN_POINT('Origin',(0.4,0.4,0.));
#1915=CARTESIAN_POINT('',(-1.38777878078145E-16,0.4,0.));
#1916=CARTESIAN_POINT('',(0.4,0.,0.));
#1917=CARTESIAN_POINT('Origin',(0.4,4.99999999999999,-0.2));
#1918=CARTESIAN_POINT('',(0.4,4.99999999999999,-0.6));
#1919=CARTESIAN_POINT('',(-1.66533453693773E-15,4.99999999999999,-0.2));
#1920=CARTESIAN_POINT('Origin',(159.6,0.4,-0.2));
#1921=CARTESIAN_POINT('',(160.,0.4,-0.2));
#1922=CARTESIAN_POINT('',(159.6,0.4,-0.6));
#1923=CARTESIAN_POINT('Origin',(159.6,0.4,-0.2));
#1924=CARTESIAN_POINT('',(159.6,0.,-0.2));
#1925=CARTESIAN_POINT('Origin',(159.6,0.4,-0.2));
#1926=CARTESIAN_POINT('Origin',(159.6,0.4,-0.2));
#1927=CARTESIAN_POINT('Origin',(159.6,0.4,0.));
#1928=CARTESIAN_POINT('',(160.,0.4,0.));
#1929=CARTESIAN_POINT('',(159.6,0.,0.));
#1930=CARTESIAN_POINT('Origin',(159.6,0.4,0.));
#1931=CARTESIAN_POINT('',(159.6,0.,0.));
#1932=CARTESIAN_POINT('',(160.,0.4,0.));
#1933=CARTESIAN_POINT('Origin',(120.,0.4,-0.2));
#1934=CARTESIAN_POINT('',(120.,0.4,-0.6));
#1935=CARTESIAN_POINT('',(120.,0.,-0.2));
#1936=CARTESIAN_POINT('Origin',(159.6,15.,-0.2));
#1937=CARTESIAN_POINT('',(159.6,15.,-0.6));
#1938=CARTESIAN_POINT('',(160.,15.,-0.2));
#1939=CARTESIAN_POINT('Origin',(40.,19.6,-0.2));
#1940=CARTESIAN_POINT('',(40.,19.6,-0.6));
#1941=CARTESIAN_POINT('',(40.,20.,-0.2));
#1942=CARTESIAN_POINT('Origin',(9.86076131526265E-31,0.,0.));
#1943=CARTESIAN_POINT('',(-6.66133814775094E-15,20.,0.));
#1944=CARTESIAN_POINT('Origin',(160.,0.,0.));
#1945=CARTESIAN_POINT('',(0.,0.,0.));
#1946=CARTESIAN_POINT('Origin',(80.,10.,-0.6));
#1947=CARTESIAN_POINT('Origin',(0.849999999999993,19.15,0.));
#1948=CARTESIAN_POINT('',(0.849999999999991,14.575,0.));
#1949=CARTESIAN_POINT('Origin',(80.,10.,0.9));
#1950=CARTESIAN_POINT('',(131.457359312881,18.35,0.9));
#1951=CARTESIAN_POINT('',(158.35,18.35,0.9));
#1952=CARTESIAN_POINT('',(1.64999999999999,18.35,0.9));
#1953=CARTESIAN_POINT('',(158.35,13.0710678118654,0.9));
#1954=CARTESIAN_POINT('',(158.35,18.35,0.9));
#1955=CARTESIAN_POINT('',(147.543145750508,2.26421356237311,0.9));
#1956=CARTESIAN_POINT('',(158.35,13.0710678118654,0.9));
#1957=CARTESIAN_POINT('',(147.543145750508,2.26421356237311,0.9));
#1958=CARTESIAN_POINT('',(129.857359312881,18.35,0.9));
#1959=CARTESIAN_POINT('',(113.771572875254,2.26421356237313,0.9));
#1960=CARTESIAN_POINT('',(130.657359312881,19.1500000000001,0.9));
#1961=CARTESIAN_POINT('',(97.685786437627,18.35,0.9));
#1962=CARTESIAN_POINT('',(113.771572875254,2.26421356237313,0.9));
#1963=CARTESIAN_POINT('',(1.64999999999999,18.35,0.9));
#1964=CARTESIAN_POINT('',(96.085786437627,18.35,0.9));
#1965=CARTESIAN_POINT('',(80.,2.2642135623731,0.9));
#1966=CARTESIAN_POINT('',(96.885786437627,19.15,0.9));
#1967=CARTESIAN_POINT('',(63.9142135623731,18.35,0.9));
#1968=CARTESIAN_POINT('',(80.,2.2642135623731,0.9));
#1969=CARTESIAN_POINT('',(1.64999999999999,18.35,0.9));
#1970=CARTESIAN_POINT('',(62.314213562373,18.35,0.9));
#1971=CARTESIAN_POINT('',(46.228427124746,2.26421356237311,0.9));
#1972=CARTESIAN_POINT('',(63.1142135623731,19.1500000000001,0.9));
#1973=CARTESIAN_POINT('',(30.142640687119,18.35,0.9));
#1974=CARTESIAN_POINT('',(46.228427124746,2.26421356237311,0.9));
#1975=CARTESIAN_POINT('',(1.64999999999999,18.35,0.9));
#1976=CARTESIAN_POINT('',(28.5426406871192,18.35,0.9));
#1977=CARTESIAN_POINT('',(12.4568542494923,2.26421356237305,0.9));
#1978=CARTESIAN_POINT('',(29.3426406871191,19.1499999999999,0.9));
#1979=CARTESIAN_POINT('',(1.64999999999999,13.0710678118654,0.9));
#1980=CARTESIAN_POINT('',(12.4568542494923,2.26421356237305,0.9));
#1981=CARTESIAN_POINT('',(1.64999999999999,18.35,0.9));
#1982=CARTESIAN_POINT('',(1.65,1.65,0.9));
#1983=CARTESIAN_POINT('',(1.64999999999999,18.35,0.9));
#1984=CARTESIAN_POINT('',(1.64999999999999,11.6568542494922,0.9));
#1985=CARTESIAN_POINT('',(11.6568542494923,1.65,0.9));
#1986=CARTESIAN_POINT('',(1.65,11.6568542494922,0.9));
#1987=CARTESIAN_POINT('',(1.64999999999999,1.65,0.9));
#1988=CARTESIAN_POINT('',(158.35,1.65,0.9));
#1989=CARTESIAN_POINT('',(1.65,1.65,0.9));
#1990=CARTESIAN_POINT('',(13.2568542494923,1.65,0.9));
#1991=CARTESIAN_POINT('',(29.3426406871191,17.735786437627,0.9));
#1992=CARTESIAN_POINT('',(12.4568542494923,0.850000000000001,0.9));
#1993=CARTESIAN_POINT('',(45.4284271247461,1.65,0.9));
#1994=CARTESIAN_POINT('',(29.3426406871191,17.735786437627,0.9));
#1995=CARTESIAN_POINT('',(158.35,1.65,0.9));
#1996=CARTESIAN_POINT('',(47.028427124746,1.65,0.9));
#1997=CARTESIAN_POINT('',(63.114213562373,17.735786437627,0.9));
#1998=CARTESIAN_POINT('',(46.228427124746,0.850000000000005,0.9));
#1999=CARTESIAN_POINT('',(79.2,1.65,0.9));
#2000=CARTESIAN_POINT('',(63.114213562373,17.735786437627,0.9));
#2001=CARTESIAN_POINT('',(158.35,1.65,0.9));
#2002=CARTESIAN_POINT('',(80.8,1.65,0.9));
#2003=CARTESIAN_POINT('',(96.8857864376269,17.7357864376269,0.9));
#2004=CARTESIAN_POINT('',(80.,0.850000000000007,0.9));
#2005=CARTESIAN_POINT('',(112.971572875254,1.65,0.9));
#2006=CARTESIAN_POINT('',(96.8857864376269,17.7357864376269,0.9));
#2007=CARTESIAN_POINT('',(158.35,1.65,0.9));
#2008=CARTESIAN_POINT('',(114.571572875254,1.65,0.9));
#2009=CARTESIAN_POINT('',(130.657359312881,17.7357864376269,0.9));
#2010=CARTESIAN_POINT('',(113.771572875254,0.850000000000005,0.9));
#2011=CARTESIAN_POINT('',(146.743145750508,1.65,0.9));
#2012=CARTESIAN_POINT('',(130.657359312881,17.7357864376269,0.9));
#2013=CARTESIAN_POINT('',(158.35,1.65,0.9));
#2014=CARTESIAN_POINT('',(148.343145750508,1.65,0.9));
#2015=CARTESIAN_POINT('',(158.35,11.6568542494923,0.9));
#2016=CARTESIAN_POINT('',(147.543145750508,0.849999999999998,0.9));
#2017=CARTESIAN_POINT('',(158.35,1.65,0.9));
#2018=CARTESIAN_POINT('',(158.35,18.35,0.9));
#2019=CARTESIAN_POINT('',(158.35,1.65,0.9));
#2020=CARTESIAN_POINT('Origin',(147.543145750508,2.26421356237311,0.));
#2021=CARTESIAN_POINT('',(131.457359312881,18.35,0.));
#2022=CARTESIAN_POINT('',(147.543145750508,2.26421356237311,0.));
#2023=CARTESIAN_POINT('',(128.723412703474,21.0839466094068,0.));
#2024=CARTESIAN_POINT('',(131.457359312881,18.35,0.));
#2025=CARTESIAN_POINT('',(147.543145750508,2.26421356237311,0.));
#2026=CARTESIAN_POINT('Origin',(158.35,13.0710678118654,0.));
#2027=CARTESIAN_POINT('',(158.35,13.0710678118654,0.));
#2028=CARTESIAN_POINT('',(137.994733047034,-7.28419914110097,0.));
#2029=CARTESIAN_POINT('',(158.35,13.0710678118654,0.));
#2030=CARTESIAN_POINT('Origin',(158.35,18.35,0.));
#2031=CARTESIAN_POINT('',(158.35,18.35,0.));
#2032=CARTESIAN_POINT('',(158.35,14.175,0.));
#2033=CARTESIAN_POINT('',(158.35,18.35,0.));
#2034=CARTESIAN_POINT('Origin',(131.457359312881,18.35,0.));
#2035=CARTESIAN_POINT('',(105.72867965644,18.35,0.));
#2036=CARTESIAN_POINT('Origin',(97.685786437627,18.35,0.));
#2037=CARTESIAN_POINT('',(129.857359312881,18.35,0.));
#2038=CARTESIAN_POINT('',(97.685786437627,18.35,0.));
#2039=CARTESIAN_POINT('',(88.8428932188135,18.35,0.));
#2040=CARTESIAN_POINT('',(129.857359312881,18.35,0.));
#2041=CARTESIAN_POINT('',(97.685786437627,18.35,0.));
#2042=CARTESIAN_POINT('Origin',(113.771572875254,2.26421356237313,0.));
#2043=CARTESIAN_POINT('',(113.771572875254,2.26421356237313,0.));
#2044=CARTESIAN_POINT('',(103.394733047034,12.6410533905933,0.));
#2045=CARTESIAN_POINT('',(113.771572875254,2.26421356237313,0.));
#2046=CARTESIAN_POINT('Origin',(129.857359312881,18.35,0.));
#2047=CARTESIAN_POINT('',(115.305519484661,3.79816017177983,0.));
#2048=CARTESIAN_POINT('Origin',(63.9142135623731,18.35,0.));
#2049=CARTESIAN_POINT('',(96.085786437627,18.35,0.));
#2050=CARTESIAN_POINT('',(63.9142135623731,18.35,0.));
#2051=CARTESIAN_POINT('',(71.9571067811866,18.35,0.));
#2052=CARTESIAN_POINT('',(96.085786437627,18.35,0.));
#2053=CARTESIAN_POINT('',(63.9142135623731,18.35,0.));
#2054=CARTESIAN_POINT('Origin',(80.,2.2642135623731,0.));
#2055=CARTESIAN_POINT('',(80.,2.2642135623731,0.));
#2056=CARTESIAN_POINT('',(78.0660533905933,4.19816017177983,0.));
#2057=CARTESIAN_POINT('',(80.,2.2642135623731,0.));
#2058=CARTESIAN_POINT('Origin',(96.085786437627,18.35,0.));
#2059=CARTESIAN_POINT('',(89.9768398282202,12.2410533905933,0.));
#2060=CARTESIAN_POINT('Origin',(30.142640687119,18.35,0.));
#2061=CARTESIAN_POINT('',(62.314213562373,18.35,0.));
#2062=CARTESIAN_POINT('',(30.142640687119,18.35,0.));
#2063=CARTESIAN_POINT('',(55.0713203435595,18.35,0.));
#2064=CARTESIAN_POINT('',(62.314213562373,18.35,0.));
#2065=CARTESIAN_POINT('',(30.142640687119,18.35,0.));
#2066=CARTESIAN_POINT('Origin',(46.228427124746,2.2642135623731,0.));
#2067=CARTESIAN_POINT('',(46.228427124746,2.2642135623731,0.));
#2068=CARTESIAN_POINT('',(52.7373737341529,-4.24473304703367,0.));
#2069=CARTESIAN_POINT('',(46.228427124746,2.2642135623731,0.));
#2070=CARTESIAN_POINT('Origin',(62.314213562373,18.35,0.));
#2071=CARTESIAN_POINT('',(64.6481601717798,20.6839466094068,0.));
#2072=CARTESIAN_POINT('Origin',(1.64999999999999,18.35,0.));
#2073=CARTESIAN_POINT('',(28.5426406871192,18.35,0.));
#2074=CARTESIAN_POINT('',(1.64999999999999,18.35,0.));
#2075=CARTESIAN_POINT('',(40.825,18.35,0.));
#2076=CARTESIAN_POINT('',(28.5426406871192,18.35,0.));
#2077=CARTESIAN_POINT('',(1.64999999999999,18.35,0.));
#2078=CARTESIAN_POINT('Origin',(1.64999999999999,13.0710678118654,0.));
#2079=CARTESIAN_POINT('',(1.65,13.0710678118654,0.));
#2080=CARTESIAN_POINT('',(1.64999999999999,11.5355339059327,0.));
#2081=CARTESIAN_POINT('',(1.65,13.0710678118654,0.));
#2082=CARTESIAN_POINT('Origin',(12.4568542494923,2.26421356237305,0.));
#2083=CARTESIAN_POINT('',(12.4568542494923,2.26421356237305,0.));
#2084=CARTESIAN_POINT('',(27.4086940777124,-12.6876262658471,0.));
#2085=CARTESIAN_POINT('',(12.4568542494923,2.26421356237305,0.));
#2086=CARTESIAN_POINT('Origin',(28.5426406871192,18.35,0.));
#2087=CARTESIAN_POINT('',(39.3194805153394,29.1268398282202,0.));
#2088=CARTESIAN_POINT('Origin',(1.65,1.65,0.));
#2089=CARTESIAN_POINT('',(1.65,11.6568542494922,0.));
#2090=CARTESIAN_POINT('',(1.65,1.65,0.));
#2091=CARTESIAN_POINT('',(1.65,5.82499999999999,0.));
#2092=CARTESIAN_POINT('',(1.65,11.6568542494922,0.));
#2093=CARTESIAN_POINT('',(1.65,1.65,0.));
#2094=CARTESIAN_POINT('Origin',(11.6568542494923,1.65,0.));
#2095=CARTESIAN_POINT('',(11.6568542494923,1.65,0.));
#2096=CARTESIAN_POINT('',(45.8284271247461,1.65,0.));
#2097=CARTESIAN_POINT('',(11.6568542494923,1.65,0.));
#2098=CARTESIAN_POINT('Origin',(1.65,11.6568542494922,0.));
#2099=CARTESIAN_POINT('',(21.6517135623732,-8.34485931288084,0.));
#2100=CARTESIAN_POINT('Origin',(45.4284271247461,1.65,0.));
#2101=CARTESIAN_POINT('',(13.2568542494923,1.65,0.));
#2102=CARTESIAN_POINT('',(45.4284271247461,1.65,0.));
#2103=CARTESIAN_POINT('',(62.714213562373,1.65,0.));
#2104=CARTESIAN_POINT('',(13.2568542494923,1.65,0.));
#2105=CARTESIAN_POINT('',(45.4284271247461,1.65,0.));
#2106=CARTESIAN_POINT('Origin',(29.3426406871191,17.735786437627,0.));
#2107=CARTESIAN_POINT('',(29.3426406871191,17.735786437627,0.));
#2108=CARTESIAN_POINT('',(43.9409271247461,3.13750000000001,0.));
#2109=CARTESIAN_POINT('',(29.3426406871191,17.735786437627,0.));
#2110=CARTESIAN_POINT('Origin',(13.2568542494923,1.65,0.));
#2111=CARTESIAN_POINT('',(32.0301406871191,20.4232864376269,0.));
#2112=CARTESIAN_POINT('Origin',(79.2,1.65,0.));
#2113=CARTESIAN_POINT('',(47.028427124746,1.65,0.));
#2114=CARTESIAN_POINT('',(79.2,1.65,0.));
#2115=CARTESIAN_POINT('',(79.6,1.65,0.));
#2116=CARTESIAN_POINT('',(47.028427124746,1.65,0.));
#2117=CARTESIAN_POINT('',(79.2,1.65,0.));
#2118=CARTESIAN_POINT('Origin',(63.114213562373,17.735786437627,0.));
#2119=CARTESIAN_POINT('',(63.114213562373,17.735786437627,0.));
#2120=CARTESIAN_POINT('',(69.2696067811865,11.5803932188135,0.));
#2121=CARTESIAN_POINT('',(63.114213562373,17.735786437627,0.));
#2122=CARTESIAN_POINT('Origin',(47.028427124746,1.65,0.));
#2123=CARTESIAN_POINT('',(57.3588203435595,11.9803932188135,0.));
#2124=CARTESIAN_POINT('Origin',(112.971572875254,1.65,0.));
#2125=CARTESIAN_POINT('',(80.8,1.65,0.));
#2126=CARTESIAN_POINT('',(112.971572875254,1.65,0.));
#2127=CARTESIAN_POINT('',(96.4857864376269,1.65,0.));
#2128=CARTESIAN_POINT('',(80.8,1.65,0.));
#2129=CARTESIAN_POINT('',(112.971572875254,1.65,0.));
#2130=CARTESIAN_POINT('Origin',(96.8857864376269,17.7357864376269,0.));
#2131=CARTESIAN_POINT('',(96.8857864376269,17.7357864376269,0.));
#2132=CARTESIAN_POINT('',(94.5982864376269,20.0232864376269,0.));
#2133=CARTESIAN_POINT('',(96.8857864376269,17.7357864376269,0.));
#2134=CARTESIAN_POINT('Origin',(80.8,1.65000000000001,0.));
#2135=CARTESIAN_POINT('',(82.6875,3.53750000000001,0.));
#2136=CARTESIAN_POINT('Origin',(146.743145750508,1.65,0.));
#2137=CARTESIAN_POINT('',(114.571572875254,1.65,0.));
#2138=CARTESIAN_POINT('',(146.743145750508,1.65,0.));
#2139=CARTESIAN_POINT('',(113.371572875254,1.65,0.));
#2140=CARTESIAN_POINT('',(114.571572875254,1.65,0.));
#2141=CARTESIAN_POINT('',(146.743145750508,1.65,0.));
#2142=CARTESIAN_POINT('Origin',(130.657359312881,17.7357864376269,0.));
#2143=CARTESIAN_POINT('',(130.657359312881,17.7357864376269,0.));
#2144=CARTESIAN_POINT('',(119.926966094067,28.4661796564404,0.));
#2145=CARTESIAN_POINT('',(130.657359312881,17.7357864376269,0.));
#2146=CARTESIAN_POINT('Origin',(114.571572875254,1.65,0.));
#2147=CARTESIAN_POINT('',(108.01617965644,-4.90539321881345,0.));
#2148=CARTESIAN_POINT('Origin',(158.35,1.65,0.));
#2149=CARTESIAN_POINT('',(148.343145750508,1.65,0.));
#2150=CARTESIAN_POINT('',(158.35,1.65,0.));
#2151=CARTESIAN_POINT('',(119.175,1.65,0.));
#2152=CARTESIAN_POINT('',(148.343145750508,1.65,0.));
#2153=CARTESIAN_POINT('',(158.35,1.65,0.));
#2154=CARTESIAN_POINT('Origin',(158.35,11.6568542494923,0.));
#2155=CARTESIAN_POINT('',(158.35,11.6568542494923,0.));
#2156=CARTESIAN_POINT('',(158.35,10.8284271247461,0.));
#2157=CARTESIAN_POINT('',(158.35,11.6568542494923,0.));
#2158=CARTESIAN_POINT('Origin',(148.343145750508,1.65,0.));
#2159=CARTESIAN_POINT('',(133.344859312881,-13.3482864376269,0.));
#2160=CARTESIAN_POINT('Origin',(80.,10.,0.));
#2161=CARTESIAN_POINT('',(160.,0.,0.));
#2162=CARTESIAN_POINT('',(160.,20.,0.));
#2163=CARTESIAN_POINT('Origin',(80.,10.,0.));
#2164=CARTESIAN_POINT('Origin',(80.,10.,0.));
#2165=CARTESIAN_POINT('Origin',(80.,10.,0.));
#2166=CARTESIAN_POINT('Origin',(80.,10.,0.));
#2167=CARTESIAN_POINT('Origin',(80.,10.,0.));
#2168=CARTESIAN_POINT('Origin',(80.,10.,0.));
#2169=CARTESIAN_POINT('Origin',(80.,10.,0.));
#2170=CARTESIAN_POINT('Origin',(80.,10.,0.));
#2171=CARTESIAN_POINT('Origin',(80.,10.,0.));
#2172=CARTESIAN_POINT('Origin',(80.,10.,0.));
#2173=CARTESIAN_POINT('Origin',(0.,20.,0.));
#2174=CARTESIAN_POINT('Origin',(160.,20.,0.));
#2175=CARTESIAN_POINT('Origin',(80.,10.,0.));
#2176=UNCERTAINTY_MEASURE_WITH_UNIT(LENGTH_MEASURE(0.01),#2180,
'DISTANCE_ACCURACY_VALUE',
'Maximum model space distance between geometric entities at asserted c
onnectivities');
#2177=UNCERTAINTY_MEASURE_WITH_UNIT(LENGTH_MEASURE(0.01),#2180,
'DISTANCE_ACCURACY_VALUE',
'Maximum model space distance between geometric entities at asserted c
onnectivities');
#2178=(
GEOMETRIC_REPRESENTATION_CONTEXT(3)
GLOBAL_UNCERTAINTY_ASSIGNED_CONTEXT((#2176))
GLOBAL_UNIT_ASSIGNED_CONTEXT((#2180,#2182,#2183))
REPRESENTATION_CONTEXT('','3D')
);
#2179=(
GEOMETRIC_REPRESENTATION_CONTEXT(3)
GLOBAL_UNCERTAINTY_ASSIGNED_CONTEXT((#2177))
GLOBAL_UNIT_ASSIGNED_CONTEXT((#2180,#2182,#2183))
REPRESENTATION_CONTEXT('','3D')
);
#2180=(
LENGTH_UNIT()
NAMED_UNIT(*)
SI_UNIT(.MILLI.,.METRE.)
);
#2181=(
LENGTH_UNIT()
NAMED_UNIT(*)
SI_UNIT(.CENTI.,.METRE.)
);
#2182=(
NAMED_UNIT(*)
PLANE_ANGLE_UNIT()
SI_UNIT($,.RADIAN.)
);
#2183=(
NAMED_UNIT(*)
SI_UNIT($,.STERADIAN.)
SOLID_ANGLE_UNIT()
);
#2184=SHAPE_DEFINITION_REPRESENTATION(#2185,#2186);
#2185=PRODUCT_DEFINITION_SHAPE('',$,#2188);
#2186=SHAPE_REPRESENTATION('',(#1340),#2178);
#2187=PRODUCT_DEFINITION_CONTEXT('part definition',#2192,'design');
#2188=PRODUCT_DEFINITION('Deckel','Deckel',#2189,#2187);
#2189=PRODUCT_DEFINITION_FORMATION('',$,#2194);
#2190=PRODUCT_RELATED_PRODUCT_CATEGORY('Deckel','Deckel',(#2194));
#2191=APPLICATION_PROTOCOL_DEFINITION('international standard',
'automotive_design',2009,#2192);
#2192=APPLICATION_CONTEXT(
'Core Data for Automotive Mechanical Design Process');
#2193=PRODUCT_CONTEXT('part definition',#2192,'mechanical');
#2194=PRODUCT('Deckel','Deckel',$,(#2193));
#2195=PRESENTATION_STYLE_ASSIGNMENT((#2196));
#2196=SURFACE_STYLE_USAGE(.BOTH.,#2199);
#2197=SURFACE_STYLE_RENDERING_WITH_PROPERTIES($,#2203,(#2198));
#2198=SURFACE_STYLE_TRANSPARENT(0.);
#2199=SURFACE_SIDE_STYLE('',(#2200,#2197));
#2200=SURFACE_STYLE_FILL_AREA(#2201);
#2201=FILL_AREA_STYLE('',(#2202));
#2202=FILL_AREA_STYLE_COLOUR('',#2203);
#2203=COLOUR_RGB('',0.87843137254902,0.874509803921569,0.858823529411765);
ENDSEC;
END-ISO-10303-21;
