ISO-10303-21;
HEADER;
/* Generated by software containing ST-Developer
 * from STEP Tools, Inc. (www.steptools.com) 
 */

FILE_DESCRIPTION(
/* description */ (''),
/* implementation_level */ '2;1');

FILE_NAME(
/* name */ 'Magnet Halter.stp',
/* time_stamp */ '2026-01-21T17:33:27+01:00',
/* author */ ('miros'),
/* organization */ (''),
/* preprocessor_version */ 'ST-DEVELOPER v20',
/* originating_system */ 'Autodesk Inventor 2025',
/* authorisation */ '');

FILE_SCHEMA (('AUTOMOTIVE_DESIGN { 1 0 10303 214 3 1 1 }'));
ENDSEC;

DATA;
#10=MECHANICAL_DESIGN_GEOMETRIC_PRESENTATION_REPRESENTATION('',(#13),#652);
#11=SHAPE_REPRESENTATION_RELATIONSHIP('SRR','None',#659,#12);
#12=ADVANCED_BREP_SHAPE_REPRESENTATION('',(#14),#651);
#13=STYLED_ITEM('',(#668),#14);
#14=MANIFOLD_SOLID_BREP('Volumenk\X\F6rper22',#363);
#15=FACE_BOUND('',#79,.T.);
#16=FACE_BOUND('',#80,.T.);
#17=PLANE('',#399);
#18=PLANE('',#402);
#19=PLANE('',#405);
#20=PLANE('',#417);
#21=PLANE('',#418);
#22=PLANE('',#419);
#23=PLANE('',#420);
#24=PLANE('',#421);
#25=PLANE('',#423);
#26=PLANE('',#429);
#27=SPHERICAL_SURFACE('',#395,2.);
#28=SPHERICAL_SURFACE('',#397,2.);
#29=SPHERICAL_SURFACE('',#415,2.);
#30=SPHERICAL_SURFACE('',#416,2.);
#31=FACE_OUTER_BOUND('',#55,.T.);
#32=FACE_OUTER_BOUND('',#56,.T.);
#33=FACE_OUTER_BOUND('',#57,.T.);
#34=FACE_OUTER_BOUND('',#58,.T.);
#35=FACE_OUTER_BOUND('',#59,.T.);
#36=FACE_OUTER_BOUND('',#60,.T.);
#37=FACE_OUTER_BOUND('',#61,.T.);
#38=FACE_OUTER_BOUND('',#62,.T.);
#39=FACE_OUTER_BOUND('',#63,.T.);
#40=FACE_OUTER_BOUND('',#64,.T.);
#41=FACE_OUTER_BOUND('',#65,.T.);
#42=FACE_OUTER_BOUND('',#66,.T.);
#43=FACE_OUTER_BOUND('',#67,.T.);
#44=FACE_OUTER_BOUND('',#68,.T.);
#45=FACE_OUTER_BOUND('',#69,.T.);
#46=FACE_OUTER_BOUND('',#70,.T.);
#47=FACE_OUTER_BOUND('',#71,.T.);
#48=FACE_OUTER_BOUND('',#72,.T.);
#49=FACE_OUTER_BOUND('',#73,.T.);
#50=FACE_OUTER_BOUND('',#74,.T.);
#51=FACE_OUTER_BOUND('',#75,.T.);
#52=FACE_OUTER_BOUND('',#76,.T.);
#53=FACE_OUTER_BOUND('',#77,.T.);
#54=FACE_OUTER_BOUND('',#78,.T.);
#55=EDGE_LOOP('',(#233,#234,#235,#236));
#56=EDGE_LOOP('',(#237,#238,#239,#240));
#57=EDGE_LOOP('',(#241,#242,#243,#244));
#58=EDGE_LOOP('',(#245,#246,#247));
#59=EDGE_LOOP('',(#248,#249,#250));
#60=EDGE_LOOP('',(#251,#252,#253,#254,#255,#256));
#61=EDGE_LOOP('',(#257,#258,#259,#260));
#62=EDGE_LOOP('',(#261,#262,#263,#264));
#63=EDGE_LOOP('',(#265,#266,#267,#268));
#64=EDGE_LOOP('',(#269,#270,#271,#272,#273,#274));
#65=EDGE_LOOP('',(#275,#276,#277,#278));
#66=EDGE_LOOP('',(#279,#280,#281,#282));
#67=EDGE_LOOP('',(#283,#284,#285,#286));
#68=EDGE_LOOP('',(#287,#288,#289));
#69=EDGE_LOOP('',(#290,#291,#292));
#70=EDGE_LOOP('',(#293,#294,#295,#296));
#71=EDGE_LOOP('',(#297,#298,#299,#300,#301,#302));
#72=EDGE_LOOP('',(#303,#304,#305,#306));
#73=EDGE_LOOP('',(#307,#308,#309,#310,#311,#312));
#74=EDGE_LOOP('',(#313));
#75=EDGE_LOOP('',(#314));
#76=EDGE_LOOP('',(#315,#316,#317,#318));
#77=EDGE_LOOP('',(#319,#320,#321,#322));
#78=EDGE_LOOP('',(#323,#324,#325,#326));
#79=EDGE_LOOP('',(#327));
#80=EDGE_LOOP('',(#328));
#81=CIRCLE('',#388,2.);
#82=CIRCLE('',#390,2.);
#83=CIRCLE('',#391,2.);
#84=CIRCLE('',#394,2.);
#85=CIRCLE('',#396,2.);
#86=CIRCLE('',#398,2.);
#87=CIRCLE('',#401,2.);
#88=CIRCLE('',#404,2.);
#89=CIRCLE('',#408,2.);
#90=CIRCLE('',#410,2.);
#91=CIRCLE('',#411,2.);
#92=CIRCLE('',#414,2.);
#93=CIRCLE('',#422,1.25);
#94=CIRCLE('',#424,1.25);
#95=CIRCLE('',#426,1.25);
#96=CIRCLE('',#428,1.25);
#97=LINE('',#554,#125);
#98=LINE('',#557,#126);
#99=LINE('',#563,#127);
#100=LINE('',#565,#128);
#101=LINE('',#571,#129);
#102=LINE('',#573,#130);
#103=LINE('',#580,#131);
#104=LINE('',#582,#132);
#105=LINE('',#584,#133);
#106=LINE('',#586,#134);
#107=LINE('',#587,#135);
#108=LINE('',#590,#136);
#109=LINE('',#594,#137);
#110=LINE('',#595,#138);
#111=LINE('',#598,#139);
#112=LINE('',#602,#140);
#113=LINE('',#604,#141);
#114=LINE('',#606,#142);
#115=LINE('',#607,#143);
#116=LINE('',#612,#144);
#117=LINE('',#618,#145);
#118=LINE('',#623,#146);
#119=LINE('',#627,#147);
#120=LINE('',#629,#148);
#121=LINE('',#631,#149);
#122=LINE('',#633,#150);
#123=LINE('',#642,#151);
#124=LINE('',#646,#152);
#125=VECTOR('',#436,10.);
#126=VECTOR('',#439,10.);
#127=VECTOR('',#444,10.);
#128=VECTOR('',#447,10.);
#129=VECTOR('',#452,10.);
#130=VECTOR('',#455,10.);
#131=VECTOR('',#466,10.);
#132=VECTOR('',#467,10.);
#133=VECTOR('',#468,10.);
#134=VECTOR('',#469,10.);
#135=VECTOR('',#470,10.);
#136=VECTOR('',#473,10.);
#137=VECTOR('',#478,10.);
#138=VECTOR('',#479,10.);
#139=VECTOR('',#482,10.);
#140=VECTOR('',#487,10.);
#141=VECTOR('',#488,10.);
#142=VECTOR('',#489,10.);
#143=VECTOR('',#490,10.);
#144=VECTOR('',#495,10.);
#145=VECTOR('',#504,10.);
#146=VECTOR('',#511,10.);
#147=VECTOR('',#518,10.);
#148=VECTOR('',#521,10.);
#149=VECTOR('',#524,10.);
#150=VECTOR('',#527,10.);
#151=VECTOR('',#538,1.25);
#152=VECTOR('',#543,1.25);
#153=ELLIPSE('',#387,2.82842712474619,2.);
#154=ELLIPSE('',#393,2.82842712474619,2.);
#155=ELLIPSE('',#407,2.82842712474619,2.);
#156=ELLIPSE('',#413,2.82842712474619,2.);
#157=VERTEX_POINT('',#550);
#158=VERTEX_POINT('',#551);
#159=VERTEX_POINT('',#553);
#160=VERTEX_POINT('',#555);
#161=VERTEX_POINT('',#559);
#162=VERTEX_POINT('',#560);
#163=VERTEX_POINT('',#562);
#164=VERTEX_POINT('',#567);
#165=VERTEX_POINT('',#568);
#166=VERTEX_POINT('',#570);
#167=VERTEX_POINT('',#579);
#168=VERTEX_POINT('',#581);
#169=VERTEX_POINT('',#583);
#170=VERTEX_POINT('',#585);
#171=VERTEX_POINT('',#589);
#172=VERTEX_POINT('',#593);
#173=VERTEX_POINT('',#597);
#174=VERTEX_POINT('',#601);
#175=VERTEX_POINT('',#603);
#176=VERTEX_POINT('',#605);
#177=VERTEX_POINT('',#609);
#178=VERTEX_POINT('',#611);
#179=VERTEX_POINT('',#615);
#180=VERTEX_POINT('',#620);
#181=VERTEX_POINT('',#635);
#182=VERTEX_POINT('',#638);
#183=VERTEX_POINT('',#641);
#184=VERTEX_POINT('',#645);
#185=EDGE_CURVE('',#157,#158,#153,.T.);
#186=EDGE_CURVE('',#158,#159,#97,.T.);
#187=EDGE_CURVE('',#159,#160,#81,.T.);
#188=EDGE_CURVE('',#160,#157,#98,.T.);
#189=EDGE_CURVE('',#161,#162,#82,.T.);
#190=EDGE_CURVE('',#162,#163,#99,.T.);
#191=EDGE_CURVE('',#163,#159,#83,.T.);
#192=EDGE_CURVE('',#159,#161,#100,.T.);
#193=EDGE_CURVE('',#164,#165,#154,.T.);
#194=EDGE_CURVE('',#165,#166,#101,.T.);
#195=EDGE_CURVE('',#166,#161,#84,.T.);
#196=EDGE_CURVE('',#161,#164,#102,.T.);
#197=EDGE_CURVE('',#166,#162,#85,.T.);
#198=EDGE_CURVE('',#163,#160,#86,.T.);
#199=EDGE_CURVE('',#167,#160,#103,.T.);
#200=EDGE_CURVE('',#168,#167,#104,.T.);
#201=EDGE_CURVE('',#168,#169,#105,.T.);
#202=EDGE_CURVE('',#170,#169,#106,.T.);
#203=EDGE_CURVE('',#157,#170,#107,.T.);
#204=EDGE_CURVE('',#163,#171,#108,.T.);
#205=EDGE_CURVE('',#167,#171,#87,.T.);
#206=EDGE_CURVE('',#172,#162,#109,.T.);
#207=EDGE_CURVE('',#171,#172,#110,.T.);
#208=EDGE_CURVE('',#166,#173,#111,.T.);
#209=EDGE_CURVE('',#172,#173,#88,.T.);
#210=EDGE_CURVE('',#165,#174,#112,.T.);
#211=EDGE_CURVE('',#175,#174,#113,.T.);
#212=EDGE_CURVE('',#176,#175,#114,.T.);
#213=EDGE_CURVE('',#173,#176,#115,.T.);
#214=EDGE_CURVE('',#176,#177,#155,.T.);
#215=EDGE_CURVE('',#177,#178,#116,.T.);
#216=EDGE_CURVE('',#178,#173,#89,.T.);
#217=EDGE_CURVE('',#179,#171,#90,.T.);
#218=EDGE_CURVE('',#172,#178,#91,.T.);
#219=EDGE_CURVE('',#178,#179,#117,.T.);
#220=EDGE_CURVE('',#180,#168,#156,.T.);
#221=EDGE_CURVE('',#167,#179,#92,.T.);
#222=EDGE_CURVE('',#179,#180,#118,.T.);
#223=EDGE_CURVE('',#158,#164,#119,.T.);
#224=EDGE_CURVE('',#174,#170,#120,.T.);
#225=EDGE_CURVE('',#177,#180,#121,.T.);
#226=EDGE_CURVE('',#169,#175,#122,.T.);
#227=EDGE_CURVE('',#181,#181,#93,.T.);
#228=EDGE_CURVE('',#182,#182,#94,.T.);
#229=EDGE_CURVE('',#181,#183,#123,.T.);
#230=EDGE_CURVE('',#183,#183,#95,.T.);
#231=EDGE_CURVE('',#182,#184,#124,.T.);
#232=EDGE_CURVE('',#184,#184,#96,.T.);
#233=ORIENTED_EDGE('',*,*,#185,.T.);
#234=ORIENTED_EDGE('',*,*,#186,.T.);
#235=ORIENTED_EDGE('',*,*,#187,.T.);
#236=ORIENTED_EDGE('',*,*,#188,.T.);
#237=ORIENTED_EDGE('',*,*,#189,.T.);
#238=ORIENTED_EDGE('',*,*,#190,.T.);
#239=ORIENTED_EDGE('',*,*,#191,.T.);
#240=ORIENTED_EDGE('',*,*,#192,.T.);
#241=ORIENTED_EDGE('',*,*,#193,.T.);
#242=ORIENTED_EDGE('',*,*,#194,.T.);
#243=ORIENTED_EDGE('',*,*,#195,.T.);
#244=ORIENTED_EDGE('',*,*,#196,.T.);
#245=ORIENTED_EDGE('',*,*,#195,.F.);
#246=ORIENTED_EDGE('',*,*,#197,.T.);
#247=ORIENTED_EDGE('',*,*,#189,.F.);
#248=ORIENTED_EDGE('',*,*,#191,.F.);
#249=ORIENTED_EDGE('',*,*,#198,.T.);
#250=ORIENTED_EDGE('',*,*,#187,.F.);
#251=ORIENTED_EDGE('',*,*,#188,.F.);
#252=ORIENTED_EDGE('',*,*,#199,.F.);
#253=ORIENTED_EDGE('',*,*,#200,.F.);
#254=ORIENTED_EDGE('',*,*,#201,.T.);
#255=ORIENTED_EDGE('',*,*,#202,.F.);
#256=ORIENTED_EDGE('',*,*,#203,.F.);
#257=ORIENTED_EDGE('',*,*,#198,.F.);
#258=ORIENTED_EDGE('',*,*,#204,.T.);
#259=ORIENTED_EDGE('',*,*,#205,.F.);
#260=ORIENTED_EDGE('',*,*,#199,.T.);
#261=ORIENTED_EDGE('',*,*,#190,.F.);
#262=ORIENTED_EDGE('',*,*,#206,.F.);
#263=ORIENTED_EDGE('',*,*,#207,.F.);
#264=ORIENTED_EDGE('',*,*,#204,.F.);
#265=ORIENTED_EDGE('',*,*,#197,.F.);
#266=ORIENTED_EDGE('',*,*,#208,.T.);
#267=ORIENTED_EDGE('',*,*,#209,.F.);
#268=ORIENTED_EDGE('',*,*,#206,.T.);
#269=ORIENTED_EDGE('',*,*,#194,.F.);
#270=ORIENTED_EDGE('',*,*,#210,.T.);
#271=ORIENTED_EDGE('',*,*,#211,.F.);
#272=ORIENTED_EDGE('',*,*,#212,.F.);
#273=ORIENTED_EDGE('',*,*,#213,.F.);
#274=ORIENTED_EDGE('',*,*,#208,.F.);
#275=ORIENTED_EDGE('',*,*,#214,.T.);
#276=ORIENTED_EDGE('',*,*,#215,.T.);
#277=ORIENTED_EDGE('',*,*,#216,.T.);
#278=ORIENTED_EDGE('',*,*,#213,.T.);
#279=ORIENTED_EDGE('',*,*,#217,.T.);
#280=ORIENTED_EDGE('',*,*,#207,.T.);
#281=ORIENTED_EDGE('',*,*,#218,.T.);
#282=ORIENTED_EDGE('',*,*,#219,.T.);
#283=ORIENTED_EDGE('',*,*,#220,.T.);
#284=ORIENTED_EDGE('',*,*,#200,.T.);
#285=ORIENTED_EDGE('',*,*,#221,.T.);
#286=ORIENTED_EDGE('',*,*,#222,.T.);
#287=ORIENTED_EDGE('',*,*,#221,.F.);
#288=ORIENTED_EDGE('',*,*,#205,.T.);
#289=ORIENTED_EDGE('',*,*,#217,.F.);
#290=ORIENTED_EDGE('',*,*,#218,.F.);
#291=ORIENTED_EDGE('',*,*,#209,.T.);
#292=ORIENTED_EDGE('',*,*,#216,.F.);
#293=ORIENTED_EDGE('',*,*,#186,.F.);
#294=ORIENTED_EDGE('',*,*,#223,.T.);
#295=ORIENTED_EDGE('',*,*,#196,.F.);
#296=ORIENTED_EDGE('',*,*,#192,.F.);
#297=ORIENTED_EDGE('',*,*,#185,.F.);
#298=ORIENTED_EDGE('',*,*,#203,.T.);
#299=ORIENTED_EDGE('',*,*,#224,.F.);
#300=ORIENTED_EDGE('',*,*,#210,.F.);
#301=ORIENTED_EDGE('',*,*,#193,.F.);
#302=ORIENTED_EDGE('',*,*,#223,.F.);
#303=ORIENTED_EDGE('',*,*,#215,.F.);
#304=ORIENTED_EDGE('',*,*,#225,.T.);
#305=ORIENTED_EDGE('',*,*,#222,.F.);
#306=ORIENTED_EDGE('',*,*,#219,.F.);
#307=ORIENTED_EDGE('',*,*,#214,.F.);
#308=ORIENTED_EDGE('',*,*,#212,.T.);
#309=ORIENTED_EDGE('',*,*,#226,.F.);
#310=ORIENTED_EDGE('',*,*,#201,.F.);
#311=ORIENTED_EDGE('',*,*,#220,.F.);
#312=ORIENTED_EDGE('',*,*,#225,.F.);
#313=ORIENTED_EDGE('',*,*,#227,.F.);
#314=ORIENTED_EDGE('',*,*,#228,.F.);
#315=ORIENTED_EDGE('',*,*,#227,.T.);
#316=ORIENTED_EDGE('',*,*,#229,.T.);
#317=ORIENTED_EDGE('',*,*,#230,.F.);
#318=ORIENTED_EDGE('',*,*,#229,.F.);
#319=ORIENTED_EDGE('',*,*,#228,.T.);
#320=ORIENTED_EDGE('',*,*,#231,.T.);
#321=ORIENTED_EDGE('',*,*,#232,.F.);
#322=ORIENTED_EDGE('',*,*,#231,.F.);
#323=ORIENTED_EDGE('',*,*,#224,.T.);
#324=ORIENTED_EDGE('',*,*,#202,.T.);
#325=ORIENTED_EDGE('',*,*,#226,.T.);
#326=ORIENTED_EDGE('',*,*,#211,.T.);
#327=ORIENTED_EDGE('',*,*,#230,.T.);
#328=ORIENTED_EDGE('',*,*,#232,.T.);
#329=CYLINDRICAL_SURFACE('',#386,2.);
#330=CYLINDRICAL_SURFACE('',#389,2.);
#331=CYLINDRICAL_SURFACE('',#392,2.);
#332=CYLINDRICAL_SURFACE('',#400,2.);
#333=CYLINDRICAL_SURFACE('',#403,2.);
#334=CYLINDRICAL_SURFACE('',#406,2.);
#335=CYLINDRICAL_SURFACE('',#409,2.);
#336=CYLINDRICAL_SURFACE('',#412,2.);
#337=CYLINDRICAL_SURFACE('',#425,1.25);
#338=CYLINDRICAL_SURFACE('',#427,1.25);
#339=ADVANCED_FACE('',(#31),#329,.T.);
#340=ADVANCED_FACE('',(#32),#330,.T.);
#341=ADVANCED_FACE('',(#33),#331,.T.);
#342=ADVANCED_FACE('',(#34),#27,.T.);
#343=ADVANCED_FACE('',(#35),#28,.T.);
#344=ADVANCED_FACE('',(#36),#17,.T.);
#345=ADVANCED_FACE('',(#37),#332,.T.);
#346=ADVANCED_FACE('',(#38),#18,.T.);
#347=ADVANCED_FACE('',(#39),#333,.T.);
#348=ADVANCED_FACE('',(#40),#19,.T.);
#349=ADVANCED_FACE('',(#41),#334,.T.);
#350=ADVANCED_FACE('',(#42),#335,.T.);
#351=ADVANCED_FACE('',(#43),#336,.T.);
#352=ADVANCED_FACE('',(#44),#29,.T.);
#353=ADVANCED_FACE('',(#45),#30,.T.);
#354=ADVANCED_FACE('',(#46),#20,.T.);
#355=ADVANCED_FACE('',(#47),#21,.T.);
#356=ADVANCED_FACE('',(#48),#22,.T.);
#357=ADVANCED_FACE('',(#49),#23,.T.);
#358=ADVANCED_FACE('',(#50),#24,.F.);
#359=ADVANCED_FACE('',(#51),#25,.F.);
#360=ADVANCED_FACE('',(#52),#337,.F.);
#361=ADVANCED_FACE('',(#53),#338,.F.);
#362=ADVANCED_FACE('',(#54,#15,#16),#26,.T.);
#363=CLOSED_SHELL('',(#339,#340,#341,#342,#343,#344,#345,#346,#347,#348,
#349,#350,#351,#352,#353,#354,#355,#356,#357,#358,#359,#360,#361,#362));
#364=DERIVED_UNIT_ELEMENT(#367,1.);
#365=DERIVED_UNIT_ELEMENT(#654,-3.);
#366=DIMENSIONAL_EXPONENTS(0.,1.,0.,0.,0.,0.,0.);
#367=(
CONVERSION_BASED_UNIT('gram',#369)
MASS_UNIT()
NAMED_UNIT(#366)
);
#368=(
MASS_UNIT()
NAMED_UNIT(*)
SI_UNIT(.KILO.,.GRAM.)
);
#369=MASS_MEASURE_WITH_UNIT(MASS_MEASURE(0.001),#368);
#370=DERIVED_UNIT((#364,#365));
#371=MEASURE_REPRESENTATION_ITEM('density measure',
POSITIVE_RATIO_MEASURE(7.85),#370);
#372=PROPERTY_DEFINITION_REPRESENTATION(#377,#374);
#373=PROPERTY_DEFINITION_REPRESENTATION(#378,#375);
#374=REPRESENTATION('material name',(#376),#651);
#375=REPRESENTATION('density',(#371),#651);
#376=DESCRIPTIVE_REPRESENTATION_ITEM('Stahl S235JR','Stahl S235JR');
#377=PROPERTY_DEFINITION('material property','material name',#661);
#378=PROPERTY_DEFINITION('material property','density of part',#661);
#379=DATE_TIME_ROLE('creation_date');
#380=APPLIED_DATE_AND_TIME_ASSIGNMENT(#381,#379,(#661));
#381=DATE_AND_TIME(#382,#383);
#382=CALENDAR_DATE(2025,13,8);
#383=LOCAL_TIME(0,0,0.,#384);
#384=COORDINATED_UNIVERSAL_TIME_OFFSET(0,0,.BEHIND.);
#385=AXIS2_PLACEMENT_3D('',#548,#430,#431);
#386=AXIS2_PLACEMENT_3D('',#549,#432,#433);
#387=AXIS2_PLACEMENT_3D('',#552,#434,#435);
#388=AXIS2_PLACEMENT_3D('',#556,#437,#438);
#389=AXIS2_PLACEMENT_3D('',#558,#440,#441);
#390=AXIS2_PLACEMENT_3D('',#561,#442,#443);
#391=AXIS2_PLACEMENT_3D('',#564,#445,#446);
#392=AXIS2_PLACEMENT_3D('',#566,#448,#449);
#393=AXIS2_PLACEMENT_3D('',#569,#450,#451);
#394=AXIS2_PLACEMENT_3D('',#572,#453,#454);
#395=AXIS2_PLACEMENT_3D('',#574,#456,#457);
#396=AXIS2_PLACEMENT_3D('',#575,#458,#459);
#397=AXIS2_PLACEMENT_3D('',#576,#460,#461);
#398=AXIS2_PLACEMENT_3D('',#577,#462,#463);
#399=AXIS2_PLACEMENT_3D('',#578,#464,#465);
#400=AXIS2_PLACEMENT_3D('',#588,#471,#472);
#401=AXIS2_PLACEMENT_3D('',#591,#474,#475);
#402=AXIS2_PLACEMENT_3D('',#592,#476,#477);
#403=AXIS2_PLACEMENT_3D('',#596,#480,#481);
#404=AXIS2_PLACEMENT_3D('',#599,#483,#484);
#405=AXIS2_PLACEMENT_3D('',#600,#485,#486);
#406=AXIS2_PLACEMENT_3D('',#608,#491,#492);
#407=AXIS2_PLACEMENT_3D('',#610,#493,#494);
#408=AXIS2_PLACEMENT_3D('',#613,#496,#497);
#409=AXIS2_PLACEMENT_3D('',#614,#498,#499);
#410=AXIS2_PLACEMENT_3D('',#616,#500,#501);
#411=AXIS2_PLACEMENT_3D('',#617,#502,#503);
#412=AXIS2_PLACEMENT_3D('',#619,#505,#506);
#413=AXIS2_PLACEMENT_3D('',#621,#507,#508);
#414=AXIS2_PLACEMENT_3D('',#622,#509,#510);
#415=AXIS2_PLACEMENT_3D('',#624,#512,#513);
#416=AXIS2_PLACEMENT_3D('',#625,#514,#515);
#417=AXIS2_PLACEMENT_3D('',#626,#516,#517);
#418=AXIS2_PLACEMENT_3D('',#628,#519,#520);
#419=AXIS2_PLACEMENT_3D('',#630,#522,#523);
#420=AXIS2_PLACEMENT_3D('',#632,#525,#526);
#421=AXIS2_PLACEMENT_3D('',#634,#528,#529);
#422=AXIS2_PLACEMENT_3D('',#636,#530,#531);
#423=AXIS2_PLACEMENT_3D('',#637,#532,#533);
#424=AXIS2_PLACEMENT_3D('',#639,#534,#535);
#425=AXIS2_PLACEMENT_3D('',#640,#536,#537);
#426=AXIS2_PLACEMENT_3D('',#643,#539,#540);
#427=AXIS2_PLACEMENT_3D('',#644,#541,#542);
#428=AXIS2_PLACEMENT_3D('',#647,#544,#545);
#429=AXIS2_PLACEMENT_3D('',#648,#546,#547);
#430=DIRECTION('axis',(0.,0.,1.));
#431=DIRECTION('refdir',(1.,0.,0.));
#432=DIRECTION('center_axis',(0.707106781186548,0.,-0.707106781186548));
#433=DIRECTION('ref_axis',(0.499999999999999,-0.707106781186548,0.499999999999999));
#434=DIRECTION('center_axis',(-1.,0.,0.));
#435=DIRECTION('ref_axis',(-3.46944695195361E-17,-1.47196168001604E-16,
1.));
#436=DIRECTION('',(-0.707106781186548,0.,0.707106781186548));
#437=DIRECTION('center_axis',(0.707106781186548,9.81307786677359E-17,-0.707106781186547));
#438=DIRECTION('ref_axis',(0.707106781186547,0.,0.707106781186548));
#439=DIRECTION('',(0.707106781186548,0.,-0.707106781186548));
#440=DIRECTION('center_axis',(0.,-1.,0.));
#441=DIRECTION('ref_axis',(0.38268343236509,0.,0.923879532511287));
#442=DIRECTION('center_axis',(0.,-1.,0.));
#443=DIRECTION('ref_axis',(0.707106781186548,0.,0.707106781186547));
#444=DIRECTION('',(0.,-1.,0.));
#445=DIRECTION('center_axis',(2.77555756156289E-16,1.,-2.77555756156289E-16));
#446=DIRECTION('ref_axis',(0.,2.77555756156289E-16,1.));
#447=DIRECTION('',(0.,1.,0.));
#448=DIRECTION('center_axis',(-0.707106781186548,0.,0.707106781186548));
#449=DIRECTION('ref_axis',(0.5,0.707106781186547,0.5));
#450=DIRECTION('center_axis',(-1.,0.,0.));
#451=DIRECTION('ref_axis',(0.,-1.47196168001604E-16,1.));
#452=DIRECTION('',(-0.707106781186548,0.,0.707106781186548));
#453=DIRECTION('center_axis',(0.707106781186548,2.94392336003208E-16,-0.707106781186547));
#454=DIRECTION('ref_axis',(-5.55111512312578E-16,1.,-1.38777878078145E-16));
#455=DIRECTION('',(0.707106781186548,0.,-0.707106781186548));
#456=DIRECTION('center_axis',(0.182143211721526,-0.87946522406461,0.439732612032305));
#457=DIRECTION('ref_axis',(0.336556770590777,0.475963149477968,0.812519920068746));
#458=DIRECTION('center_axis',(1.,0.,0.));
#459=DIRECTION('ref_axis',(0.,0.707106781186547,0.707106781186548));
#460=DIRECTION('center_axis',(-0.182143211721527,-0.87946522406461,-0.439732612032304));
#461=DIRECTION('ref_axis',(0.336556770590779,-0.475963149477968,0.812519920068745));
#462=DIRECTION('center_axis',(1.,0.,0.));
#463=DIRECTION('ref_axis',(0.,-0.707106781186548,0.707106781186548));
#464=DIRECTION('center_axis',(0.,-1.,0.));
#465=DIRECTION('ref_axis',(-1.,0.,0.));
#466=DIRECTION('',(1.,0.,0.));
#467=DIRECTION('',(0.707106781186548,0.,0.707106781186548));
#468=DIRECTION('',(0.,0.,-1.));
#469=DIRECTION('',(-1.,0.,0.));
#470=DIRECTION('',(0.,0.,-1.));
#471=DIRECTION('center_axis',(1.,0.,0.));
#472=DIRECTION('ref_axis',(0.,-0.707106781186548,0.707106781186548));
#473=DIRECTION('',(-1.,0.,0.));
#474=DIRECTION('center_axis',(-1.,0.,0.));
#475=DIRECTION('ref_axis',(0.,-0.707106781186548,0.707106781186548));
#476=DIRECTION('center_axis',(0.,0.,1.));
#477=DIRECTION('ref_axis',(1.,0.,0.));
#478=DIRECTION('',(1.,0.,0.));
#479=DIRECTION('',(0.,1.,0.));
#480=DIRECTION('center_axis',(-1.,0.,0.));
#481=DIRECTION('ref_axis',(0.,0.707106781186547,0.707106781186548));
#482=DIRECTION('',(-1.,0.,0.));
#483=DIRECTION('center_axis',(-1.,0.,0.));
#484=DIRECTION('ref_axis',(0.,0.707106781186547,0.707106781186548));
#485=DIRECTION('center_axis',(0.,1.,0.));
#486=DIRECTION('ref_axis',(1.,0.,0.));
#487=DIRECTION('',(0.,0.,-1.));
#488=DIRECTION('',(1.,0.,0.));
#489=DIRECTION('',(0.,0.,-1.));
#490=DIRECTION('',(-0.707106781186548,0.,-0.707106781186548));
#491=DIRECTION('center_axis',(-0.707106781186548,0.,-0.707106781186548));
#492=DIRECTION('ref_axis',(-0.5,0.707106781186547,0.5));
#493=DIRECTION('center_axis',(1.,0.,0.));
#494=DIRECTION('ref_axis',(0.,-1.47196168001604E-16,1.));
#495=DIRECTION('',(0.707106781186548,0.,0.707106781186548));
#496=DIRECTION('center_axis',(-0.707106781186548,-9.8130778667736E-17,-0.707106781186548));
#497=DIRECTION('ref_axis',(-0.707106781186548,0.,0.707106781186548));
#498=DIRECTION('center_axis',(0.,1.,0.));
#499=DIRECTION('ref_axis',(-0.38268343236509,0.,0.923879532511287));
#500=DIRECTION('center_axis',(-2.77555756156289E-16,1.,-2.77555756156289E-16));
#501=DIRECTION('ref_axis',(-0.707106781186548,0.,0.707106781186548));
#502=DIRECTION('center_axis',(0.,-1.,0.));
#503=DIRECTION('ref_axis',(0.,0.,1.));
#504=DIRECTION('',(0.,-1.,0.));
#505=DIRECTION('center_axis',(0.707106781186548,0.,0.707106781186548));
#506=DIRECTION('ref_axis',(-0.5,-0.707106781186548,0.5));
#507=DIRECTION('center_axis',(1.,0.,0.));
#508=DIRECTION('ref_axis',(3.46944695195361E-17,4.9065389333868E-17,1.));
#509=DIRECTION('center_axis',(-0.707106781186548,-2.94392336003208E-16,
-0.707106781186547));
#510=DIRECTION('ref_axis',(5.55111512312578E-16,-1.,-1.38777878078145E-16));
#511=DIRECTION('',(-0.707106781186548,0.,-0.707106781186548));
#512=DIRECTION('center_axis',(0.182143211721527,-0.879465224064609,-0.439732612032305));
#513=DIRECTION('ref_axis',(-0.336556770590777,-0.475963149477968,0.812519920068746));
#514=DIRECTION('center_axis',(-0.182143211721527,-0.87946522406461,0.439732612032304));
#515=DIRECTION('ref_axis',(-0.336556770590778,0.475963149477968,0.812519920068745));
#516=DIRECTION('center_axis',(0.707106781186548,0.,0.707106781186548));
#517=DIRECTION('ref_axis',(0.707106781186548,0.,-0.707106781186548));
#518=DIRECTION('',(0.,1.,0.));
#519=DIRECTION('center_axis',(1.,0.,0.));
#520=DIRECTION('ref_axis',(0.,-1.,0.));
#521=DIRECTION('',(0.,-1.,0.));
#522=DIRECTION('center_axis',(-0.707106781186548,0.,0.707106781186548));
#523=DIRECTION('ref_axis',(0.707106781186548,0.,0.707106781186548));
#524=DIRECTION('',(0.,-1.,0.));
#525=DIRECTION('center_axis',(-1.,0.,0.));
#526=DIRECTION('ref_axis',(0.,1.,0.));
#527=DIRECTION('',(0.,1.,0.));
#528=DIRECTION('center_axis',(0.,0.,1.));
#529=DIRECTION('ref_axis',(1.,0.,0.));
#530=DIRECTION('center_axis',(0.,0.,1.));
#531=DIRECTION('ref_axis',(1.,0.,0.));
#532=DIRECTION('center_axis',(0.,0.,1.));
#533=DIRECTION('ref_axis',(1.,0.,0.));
#534=DIRECTION('center_axis',(0.,0.,1.));
#535=DIRECTION('ref_axis',(1.,0.,0.));
#536=DIRECTION('center_axis',(0.,0.,-1.));
#537=DIRECTION('ref_axis',(1.,0.,0.));
#538=DIRECTION('',(0.,0.,-1.));
#539=DIRECTION('center_axis',(0.,0.,1.));
#540=DIRECTION('ref_axis',(1.,0.,0.));
#541=DIRECTION('center_axis',(0.,0.,-1.));
#542=DIRECTION('ref_axis',(1.,0.,0.));
#543=DIRECTION('',(0.,0.,-1.));
#544=DIRECTION('center_axis',(0.,0.,1.));
#545=DIRECTION('ref_axis',(1.,0.,0.));
#546=DIRECTION('center_axis',(0.,0.,-1.));
#547=DIRECTION('ref_axis',(-1.,0.,0.));
#548=CARTESIAN_POINT('',(0.,0.,0.));
#549=CARTESIAN_POINT('Origin',(11.0857864376269,2.,-3.91421356237309));
#550=CARTESIAN_POINT('',(15.,0.,-7.82842712474619));
#551=CARTESIAN_POINT('',(15.,2.,-5.));
#552=CARTESIAN_POINT('Origin',(15.,2.,-7.82842712474619));
#553=CARTESIAN_POINT('',(10.5857864376269,2.,-0.585786437626906));
#554=CARTESIAN_POINT('',(12.5,2.,-2.5));
#555=CARTESIAN_POINT('',(9.17157287525381,0.,-2.));
#556=CARTESIAN_POINT('Origin',(9.17157287525381,2.,-2.));
#557=CARTESIAN_POINT('',(11.0857864376269,0.,-3.91421356237309));
#558=CARTESIAN_POINT('Origin',(9.17157287525381,12.5,-2.));
#559=CARTESIAN_POINT('',(10.5857864376269,18.,-0.585786437626905));
#560=CARTESIAN_POINT('',(9.17157287525381,18.,0.));
#561=CARTESIAN_POINT('Origin',(9.17157287525381,18.,-2.));
#562=CARTESIAN_POINT('',(9.17157287525381,2.,0.));
#563=CARTESIAN_POINT('',(9.17157287525381,12.5,0.));
#564=CARTESIAN_POINT('Origin',(9.17157287525381,2.,-2.));
#565=CARTESIAN_POINT('',(10.5857864376269,12.5,-0.585786437626905));
#566=CARTESIAN_POINT('Origin',(7.33578643762691,18.,-0.164213562373095));
#567=CARTESIAN_POINT('',(15.,18.,-5.));
#568=CARTESIAN_POINT('',(15.,20.,-7.82842712474619));
#569=CARTESIAN_POINT('Origin',(15.,18.,-7.82842712474619));
#570=CARTESIAN_POINT('',(9.17157287525381,20.,-2.));
#571=CARTESIAN_POINT('',(7.33578643762691,20.,-0.164213562373095));
#572=CARTESIAN_POINT('Origin',(9.17157287525381,18.,-2.));
#573=CARTESIAN_POINT('',(8.75,18.,1.25));
#574=CARTESIAN_POINT('Origin',(9.17157287525381,18.,-2.));
#575=CARTESIAN_POINT('Origin',(9.17157287525381,18.,-2.));
#576=CARTESIAN_POINT('Origin',(9.17157287525381,2.,-2.));
#577=CARTESIAN_POINT('Origin',(9.17157287525381,2.,-2.));
#578=CARTESIAN_POINT('Origin',(15.,0.,0.));
#579=CARTESIAN_POINT('',(5.82842712474619,0.,-2.));
#580=CARTESIAN_POINT('',(11.25,0.,-2.));
#581=CARTESIAN_POINT('',(0.,0.,-7.82842712474619));
#582=CARTESIAN_POINT('',(7.66421356237309,0.,-0.164213562373095));
#583=CARTESIAN_POINT('',(0.,0.,-8.));
#584=CARTESIAN_POINT('',(0.,0.,0.));
#585=CARTESIAN_POINT('',(15.,0.,-8.));
#586=CARTESIAN_POINT('',(0.,0.,-8.));
#587=CARTESIAN_POINT('',(15.,0.,0.));
#588=CARTESIAN_POINT('Origin',(11.25,2.,-2.));
#589=CARTESIAN_POINT('',(5.82842712474619,2.,0.));
#590=CARTESIAN_POINT('',(11.25,2.,0.));
#591=CARTESIAN_POINT('Origin',(5.82842712474619,2.,-2.));
#592=CARTESIAN_POINT('Origin',(7.5,10.,0.));
#593=CARTESIAN_POINT('',(5.82842712474619,18.,0.));
#594=CARTESIAN_POINT('',(3.75,18.,0.));
#595=CARTESIAN_POINT('',(5.82842712474619,7.5,0.));
#596=CARTESIAN_POINT('Origin',(3.75,18.,-2.));
#597=CARTESIAN_POINT('',(5.82842712474619,20.,-2.));
#598=CARTESIAN_POINT('',(3.75,20.,-2.));
#599=CARTESIAN_POINT('Origin',(5.82842712474619,18.,-2.));
#600=CARTESIAN_POINT('Origin',(0.,20.,0.));
#601=CARTESIAN_POINT('',(15.,20.,-8.));
#602=CARTESIAN_POINT('',(15.,20.,0.));
#603=CARTESIAN_POINT('',(0.,20.,-8.));
#604=CARTESIAN_POINT('',(15.,20.,-8.));
#605=CARTESIAN_POINT('',(0.,20.,-7.82842712474619));
#606=CARTESIAN_POINT('',(0.,20.,0.));
#607=CARTESIAN_POINT('',(3.91421356237309,20.,-3.91421356237309));
#608=CARTESIAN_POINT('Origin',(3.91421356237309,18.,-3.91421356237309));
#609=CARTESIAN_POINT('',(0.,18.,-5.));
#610=CARTESIAN_POINT('Origin',(-5.55111512312578E-16,18.,-7.82842712474619));
#611=CARTESIAN_POINT('',(4.41421356237309,18.,-0.585786437626905));
#612=CARTESIAN_POINT('',(2.5,18.,-2.5));
#613=CARTESIAN_POINT('Origin',(5.82842712474619,18.,-2.));
#614=CARTESIAN_POINT('Origin',(5.82842712474619,7.5,-2.));
#615=CARTESIAN_POINT('',(4.4142135623731,2.,-0.585786437626905));
#616=CARTESIAN_POINT('Origin',(5.82842712474619,2.,-2.));
#617=CARTESIAN_POINT('Origin',(5.82842712474619,18.,-2.));
#618=CARTESIAN_POINT('',(4.4142135623731,7.5,-0.585786437626905));
#619=CARTESIAN_POINT('Origin',(7.66421356237309,2.,-0.164213562373095));
#620=CARTESIAN_POINT('',(0.,2.,-5.));
#621=CARTESIAN_POINT('Origin',(1.11022302462516E-15,2.,-7.82842712474619));
#622=CARTESIAN_POINT('Origin',(5.82842712474619,2.,-2.));
#623=CARTESIAN_POINT('',(6.25,2.,1.25));
#624=CARTESIAN_POINT('Origin',(5.82842712474619,2.,-2.));
#625=CARTESIAN_POINT('Origin',(5.82842712474619,18.,-2.));
#626=CARTESIAN_POINT('Origin',(12.5,15.,-2.5));
#627=CARTESIAN_POINT('',(15.,15.,-5.));
#628=CARTESIAN_POINT('Origin',(15.,20.,0.));
#629=CARTESIAN_POINT('',(15.,0.,-8.));
#630=CARTESIAN_POINT('Origin',(2.5,5.,-2.5));
#631=CARTESIAN_POINT('',(0.,5.,-5.));
#632=CARTESIAN_POINT('Origin',(0.,0.,0.));
#633=CARTESIAN_POINT('',(0.,20.,-8.));
#634=CARTESIAN_POINT('Origin',(7.5,13.5,-0.2));
#635=CARTESIAN_POINT('',(6.25,13.5,-0.2));
#636=CARTESIAN_POINT('Origin',(7.5,13.5,-0.2));
#637=CARTESIAN_POINT('Origin',(7.5,6.5,-0.2));
#638=CARTESIAN_POINT('',(6.25,6.5,-0.2));
#639=CARTESIAN_POINT('Origin',(7.5,6.5,-0.2));
#640=CARTESIAN_POINT('Origin',(7.5,13.5,0.));
#641=CARTESIAN_POINT('',(6.25,13.5,-8.));
#642=CARTESIAN_POINT('',(6.25,13.5,0.));
#643=CARTESIAN_POINT('Origin',(7.5,13.5,-8.));
#644=CARTESIAN_POINT('Origin',(7.5,6.5,0.));
#645=CARTESIAN_POINT('',(6.25,6.5,-8.));
#646=CARTESIAN_POINT('',(6.25,6.5,0.));
#647=CARTESIAN_POINT('Origin',(7.5,6.5,-8.));
#648=CARTESIAN_POINT('Origin',(7.5,10.,-8.));
#649=UNCERTAINTY_MEASURE_WITH_UNIT(LENGTH_MEASURE(0.01),#653,
'DISTANCE_ACCURACY_VALUE',
'Maximum model space distance between geometric entities at asserted c
onnectivities');
#650=UNCERTAINTY_MEASURE_WITH_UNIT(LENGTH_MEASURE(0.01),#653,
'DISTANCE_ACCURACY_VALUE',
'Maximum model space distance between geometric entities at asserted c
onnectivities');
#651=(
GEOMETRIC_REPRESENTATION_CONTEXT(3)
GLOBAL_UNCERTAINTY_ASSIGNED_CONTEXT((#649))
GLOBAL_UNIT_ASSIGNED_CONTEXT((#653,#655,#656))
REPRESENTATION_CONTEXT('','3D')
);
#652=(
GEOMETRIC_REPRESENTATION_CONTEXT(3)
GLOBAL_UNCERTAINTY_ASSIGNED_CONTEXT((#650))
GLOBAL_UNIT_ASSIGNED_CONTEXT((#653,#655,#656))
REPRESENTATION_CONTEXT('','3D')
);
#653=(
LENGTH_UNIT()
NAMED_UNIT(*)
SI_UNIT(.MILLI.,.METRE.)
);
#654=(
LENGTH_UNIT()
NAMED_UNIT(*)
SI_UNIT(.CENTI.,.METRE.)
);
#655=(
NAMED_UNIT(*)
PLANE_ANGLE_UNIT()
SI_UNIT($,.RADIAN.)
);
#656=(
NAMED_UNIT(*)
SI_UNIT($,.STERADIAN.)
SOLID_ANGLE_UNIT()
);
#657=SHAPE_DEFINITION_REPRESENTATION(#658,#659);
#658=PRODUCT_DEFINITION_SHAPE('',$,#661);
#659=SHAPE_REPRESENTATION('',(#385),#651);
#660=PRODUCT_DEFINITION_CONTEXT('part definition',#665,'design');
#661=PRODUCT_DEFINITION('Magnet Halter','Magnet Halter',#662,#660);
#662=PRODUCT_DEFINITION_FORMATION('',$,#667);
#663=PRODUCT_RELATED_PRODUCT_CATEGORY('Magnet Halter','Magnet Halter',(#667));
#664=APPLICATION_PROTOCOL_DEFINITION('international standard',
'automotive_design',2009,#665);
#665=APPLICATION_CONTEXT(
'Core Data for Automotive Mechanical Design Process');
#666=PRODUCT_CONTEXT('part definition',#665,'mechanical');
#667=PRODUCT('Magnet Halter','Magnet Halter',$,(#666));
#668=PRESENTATION_STYLE_ASSIGNMENT((#669));
#669=SURFACE_STYLE_USAGE(.BOTH.,#672);
#670=SURFACE_STYLE_RENDERING_WITH_PROPERTIES($,#676,(#671));
#671=SURFACE_STYLE_TRANSPARENT(0.449999988079071);
#672=SURFACE_SIDE_STYLE('',(#673,#670));
#673=SURFACE_STYLE_FILL_AREA(#674);
#674=FILL_AREA_STYLE('',(#675));
#675=FILL_AREA_STYLE_COLOUR('',#676);
#676=COLOUR_RGB('',0.450980392156863,0.27843137254902,0.0392156862745098);
ENDSEC;
END-ISO-10303-21;
